<?xml version="1.0" encoding="utf-8" standalone="no"?>
<!DOCTYPE svg PUBLIC "-//W3C//DTD SVG 1.1//EN"
  "http://www.w3.org/Graphics/SVG/1.1/DTD/svg11.dtd">
<svg height="345.6pt" version="1.1" viewBox="0 0 460.8 345.6" width="460.8pt" xmlns="http://www.w3.org/2000/svg" xmlns:xlink="http://www.w3.org/1999/xlink">
 <metadata>
  <rdf:RDF xmlns:cc="http://creativecommons.org/ns#" xmlns:dc="http://purl.org/dc/elements/1.1/" xmlns:rdf="http://www.w3.org/1999/02/22-rdf-syntax-ns#">
   <cc:Work>
    <dc:type rdf:resource="http://purl.org/dc/dcmitype/StillImage"/>
    <dc:date>2021-12-19T20:13:55.806720</dc:date>
    <dc:format>image/svg+xml</dc:format>
    <dc:creator>
     <cc:Agent>
      <dc:title>Matplotlib v3.4.2, https://matplotlib.org/</dc:title>
     </cc:Agent>
    </dc:creator>
   </cc:Work>
  </rdf:RDF>
 </metadata>
 <defs>
  <style type="text/css">*{stroke-linecap:butt;stroke-linejoin:round;}</style>
 </defs>
 <g id="figure_1">
  <g id="patch_1">
   <path d="M 0 345.6 
L 460.8 345.6 
L 460.8 0 
L 0 0 
z
" style="fill:#ffffff;"/>
  </g>
  <g id="axes_1">
   <g id="patch_2">
    <path d="M 57.6 307.584 
L 414.72 307.584 
L 414.72 41.472 
L 57.6 41.472 
z
" style="fill:#ffffff;"/>
   </g>
   <g id="matplotlib.axis_1">
    <g id="xtick_1">
     <g id="line2d_1">
      <defs>
       <path d="M 0 0 
L 0 3.5 
" id="md13f983a21" style="stroke:#000000;stroke-width:0.8;"/>
      </defs>
      <g>
       <use style="stroke:#000000;stroke-width:0.8;" x="73.832727" xlink:href="#md13f983a21" y="307.584"/>
      </g>
     </g>
     <g id="text_1">
      <!-- $\mathdefault{0}$ -->
      <g transform="translate(71.34206 321.445476)scale(0.1 -0.1)">
       <defs>
        <path d="M 2688 2025 
C 2688 2416 2682 3080 2413 3591 
C 2176 4039 1798 4198 1466 4198 
C 1158 4198 768 4058 525 3597 
C 269 3118 243 2524 243 2025 
C 243 1661 250 1106 448 619 
C 723 -39 1216 -128 1466 -128 
C 1760 -128 2208 -7 2470 600 
C 2662 1042 2688 1559 2688 2025 
z
M 1466 -26 
C 1056 -26 813 325 723 812 
C 653 1188 653 1738 653 2096 
C 653 2588 653 2997 736 3387 
C 858 3929 1216 4096 1466 4096 
C 1728 4096 2067 3923 2189 3400 
C 2272 3036 2278 2607 2278 2096 
C 2278 1680 2278 1169 2202 792 
C 2067 95 1690 -26 1466 -26 
z
" id="CMR17-30" transform="scale(0.015625)"/>
       </defs>
       <use transform="scale(0.996264)" xlink:href="#CMR17-30"/>
      </g>
     </g>
    </g>
    <g id="xtick_2">
     <g id="line2d_2">
      <g>
       <use style="stroke:#000000;stroke-width:0.8;" x="115.455105" xlink:href="#md13f983a21" y="307.584"/>
      </g>
     </g>
     <g id="text_2">
      <!-- $\mathdefault{5}$ -->
      <g transform="translate(112.964437 321.445476)scale(0.1 -0.1)">
       <defs>
        <path d="M 730 3692 
C 794 3666 1056 3584 1325 3584 
C 1920 3584 2246 3911 2432 4100 
C 2432 4157 2432 4192 2394 4192 
C 2387 4192 2374 4192 2323 4163 
C 2099 4058 1837 3973 1517 3973 
C 1325 3973 1037 3999 723 4139 
C 653 4171 640 4171 634 4171 
C 602 4171 595 4164 595 4037 
L 595 2203 
C 595 2089 595 2057 659 2057 
C 691 2057 704 2070 736 2114 
C 941 2401 1222 2522 1542 2522 
C 1766 2522 2246 2382 2246 1289 
C 2246 1085 2246 715 2054 421 
C 1894 159 1645 25 1370 25 
C 947 25 518 320 403 814 
C 429 807 480 795 506 795 
C 589 795 749 840 749 1038 
C 749 1210 627 1280 506 1280 
C 358 1280 262 1190 262 1011 
C 262 454 704 -128 1382 -128 
C 2042 -128 2669 440 2669 1264 
C 2669 2030 2170 2624 1549 2624 
C 1222 2624 947 2503 730 2274 
L 730 3692 
z
" id="CMR17-35" transform="scale(0.015625)"/>
       </defs>
       <use transform="scale(0.996264)" xlink:href="#CMR17-35"/>
      </g>
     </g>
    </g>
    <g id="xtick_3">
     <g id="line2d_3">
      <g>
       <use style="stroke:#000000;stroke-width:0.8;" x="157.077483" xlink:href="#md13f983a21" y="307.584"/>
      </g>
     </g>
     <g id="text_3">
      <!-- $\mathdefault{10}$ -->
      <g transform="translate(152.096147 321.445476)scale(0.1 -0.1)">
       <defs>
        <path d="M 1702 4058 
C 1702 4192 1696 4192 1606 4192 
C 1357 3916 979 3827 621 3827 
C 602 3827 570 3827 563 3808 
C 557 3795 557 3782 557 3648 
C 755 3648 1088 3686 1344 3839 
L 1344 461 
C 1344 236 1331 160 781 160 
L 589 160 
L 589 0 
C 896 0 1216 0 1523 0 
C 1830 0 2150 0 2458 0 
L 2458 160 
L 2266 160 
C 1715 160 1702 230 1702 458 
L 1702 4058 
z
" id="CMR17-31" transform="scale(0.015625)"/>
       </defs>
       <use transform="scale(0.996264)" xlink:href="#CMR17-31"/>
       <use transform="translate(45.690477 0)scale(0.996264)" xlink:href="#CMR17-30"/>
      </g>
     </g>
    </g>
    <g id="xtick_4">
     <g id="line2d_4">
      <g>
       <use style="stroke:#000000;stroke-width:0.8;" x="198.69986" xlink:href="#md13f983a21" y="307.584"/>
      </g>
     </g>
     <g id="text_4">
      <!-- $\mathdefault{15}$ -->
      <g transform="translate(193.718525 321.445476)scale(0.1 -0.1)">
       <use transform="scale(0.996264)" xlink:href="#CMR17-31"/>
       <use transform="translate(45.690477 0)scale(0.996264)" xlink:href="#CMR17-35"/>
      </g>
     </g>
    </g>
    <g id="xtick_5">
     <g id="line2d_5">
      <g>
       <use style="stroke:#000000;stroke-width:0.8;" x="240.322238" xlink:href="#md13f983a21" y="307.584"/>
      </g>
     </g>
     <g id="text_5">
      <!-- $\mathdefault{20}$ -->
      <g transform="translate(235.340903 321.445476)scale(0.1 -0.1)">
       <defs>
        <path d="M 2669 989 
L 2554 989 
C 2490 536 2438 459 2413 420 
C 2381 369 1920 369 1830 369 
L 602 369 
C 832 619 1280 1072 1824 1597 
C 2214 1967 2669 2402 2669 3035 
C 2669 3790 2067 4224 1395 4224 
C 691 4224 262 3604 262 3030 
C 262 2780 448 2748 525 2748 
C 589 2748 781 2787 781 3010 
C 781 3207 614 3264 525 3264 
C 486 3264 448 3258 422 3245 
C 544 3790 915 4058 1306 4058 
C 1862 4058 2227 3617 2227 3035 
C 2227 2479 1901 2000 1536 1584 
L 262 146 
L 262 0 
L 2515 0 
L 2669 989 
z
" id="CMR17-32" transform="scale(0.015625)"/>
       </defs>
       <use transform="scale(0.996264)" xlink:href="#CMR17-32"/>
       <use transform="translate(45.690477 0)scale(0.996264)" xlink:href="#CMR17-30"/>
      </g>
     </g>
    </g>
    <g id="xtick_6">
     <g id="line2d_6">
      <g>
       <use style="stroke:#000000;stroke-width:0.8;" x="281.944615" xlink:href="#md13f983a21" y="307.584"/>
      </g>
     </g>
     <g id="text_6">
      <!-- $\mathdefault{25}$ -->
      <g transform="translate(276.96328 321.445476)scale(0.1 -0.1)">
       <use transform="scale(0.996264)" xlink:href="#CMR17-32"/>
       <use transform="translate(45.690477 0)scale(0.996264)" xlink:href="#CMR17-35"/>
      </g>
     </g>
    </g>
    <g id="xtick_7">
     <g id="line2d_7">
      <g>
       <use style="stroke:#000000;stroke-width:0.8;" x="323.566993" xlink:href="#md13f983a21" y="307.584"/>
      </g>
     </g>
     <g id="text_7">
      <!-- $\mathdefault{30}$ -->
      <g transform="translate(318.585658 321.445476)scale(0.1 -0.1)">
       <defs>
        <path d="M 1414 2157 
C 1984 2157 2234 1662 2234 1090 
C 2234 320 1824 25 1453 25 
C 1114 25 563 194 390 693 
C 422 680 454 680 486 680 
C 640 680 755 782 755 948 
C 755 1133 614 1216 486 1216 
C 378 1216 211 1165 211 926 
C 211 335 787 -128 1466 -128 
C 2176 -128 2720 430 2720 1085 
C 2720 1707 2208 2157 1600 2227 
C 2086 2328 2554 2756 2554 3329 
C 2554 3820 2048 4179 1472 4179 
C 890 4179 378 3829 378 3329 
C 378 3110 544 3072 627 3072 
C 762 3072 877 3155 877 3321 
C 877 3486 762 3569 627 3569 
C 602 3569 570 3569 544 3557 
C 730 3959 1235 4032 1459 4032 
C 1683 4032 2106 3925 2106 3320 
C 2106 3143 2080 2828 1862 2550 
C 1670 2304 1453 2304 1242 2284 
C 1210 2284 1062 2269 1037 2269 
C 992 2263 966 2257 966 2208 
C 966 2163 973 2157 1101 2157 
L 1414 2157 
z
" id="CMR17-33" transform="scale(0.015625)"/>
       </defs>
       <use transform="scale(0.996264)" xlink:href="#CMR17-33"/>
       <use transform="translate(45.690477 0)scale(0.996264)" xlink:href="#CMR17-30"/>
      </g>
     </g>
    </g>
    <g id="xtick_8">
     <g id="line2d_8">
      <g>
       <use style="stroke:#000000;stroke-width:0.8;" x="365.189371" xlink:href="#md13f983a21" y="307.584"/>
      </g>
     </g>
     <g id="text_8">
      <!-- $\mathdefault{35}$ -->
      <g transform="translate(360.208035 321.445476)scale(0.1 -0.1)">
       <use transform="scale(0.996264)" xlink:href="#CMR17-33"/>
       <use transform="translate(45.690477 0)scale(0.996264)" xlink:href="#CMR17-35"/>
      </g>
     </g>
    </g>
    <g id="xtick_9">
     <g id="line2d_9">
      <g>
       <use style="stroke:#000000;stroke-width:0.8;" x="406.811748" xlink:href="#md13f983a21" y="307.584"/>
      </g>
     </g>
     <g id="text_9">
      <!-- $\mathdefault{40}$ -->
      <g transform="translate(401.830413 321.445476)scale(0.1 -0.1)">
       <defs>
        <path d="M 2150 4122 
C 2150 4256 2144 4256 2029 4256 
L 128 1254 
L 128 1088 
L 1779 1088 
L 1779 457 
C 1779 224 1766 160 1318 160 
L 1197 160 
L 1197 0 
C 1402 0 1747 0 1965 0 
C 2182 0 2528 0 2733 0 
L 2733 160 
L 2611 160 
C 2163 160 2150 224 2150 457 
L 2150 1088 
L 2803 1088 
L 2803 1254 
L 2150 1254 
L 2150 4122 
z
M 1798 3703 
L 1798 1254 
L 256 1254 
L 1798 3703 
z
" id="CMR17-34" transform="scale(0.015625)"/>
       </defs>
       <use transform="scale(0.996264)" xlink:href="#CMR17-34"/>
       <use transform="translate(45.690477 0)scale(0.996264)" xlink:href="#CMR17-30"/>
      </g>
     </g>
    </g>
   </g>
   <g id="matplotlib.axis_2">
    <g id="ytick_1">
     <g id="line2d_10">
      <defs>
       <path d="M 0 0 
L -3.5 0 
" id="mb4255d7bdb" style="stroke:#000000;stroke-width:0.8;"/>
      </defs>
      <g>
       <use style="stroke:#000000;stroke-width:0.8;" x="57.6" xlink:href="#mb4255d7bdb" y="303.841265"/>
      </g>
     </g>
     <g id="text_10">
      <!-- $\mathdefault{1400}$ -->
      <g transform="translate(30.674659 307.272003)scale(0.1 -0.1)">
       <use transform="scale(0.996264)" xlink:href="#CMR17-31"/>
       <use transform="translate(45.690477 0)scale(0.996264)" xlink:href="#CMR17-34"/>
       <use transform="translate(91.380954 0)scale(0.996264)" xlink:href="#CMR17-30"/>
       <use transform="translate(137.071431 0)scale(0.996264)" xlink:href="#CMR17-30"/>
      </g>
     </g>
    </g>
    <g id="ytick_2">
     <g id="line2d_11">
      <g>
       <use style="stroke:#000000;stroke-width:0.8;" x="57.6" xlink:href="#mb4255d7bdb" y="256.90603"/>
      </g>
     </g>
     <g id="text_11">
      <!-- $\mathdefault{1600}$ -->
      <g transform="translate(30.674659 260.336768)scale(0.1 -0.1)">
       <defs>
        <path d="M 678 2176 
C 678 3690 1395 4032 1811 4032 
C 1946 4032 2272 4009 2400 3776 
C 2298 3776 2106 3776 2106 3553 
C 2106 3381 2246 3323 2336 3323 
C 2394 3323 2566 3348 2566 3560 
C 2566 3954 2246 4179 1805 4179 
C 1043 4179 243 3390 243 1984 
C 243 253 966 -128 1478 -128 
C 2099 -128 2688 427 2688 1283 
C 2688 2081 2170 2662 1517 2662 
C 1126 2662 838 2407 678 1960 
L 678 2176 
z
M 1478 25 
C 691 25 691 1200 691 1436 
C 691 1896 909 2560 1504 2560 
C 1613 2560 1926 2560 2138 2120 
C 2253 1870 2253 1609 2253 1289 
C 2253 944 2253 690 2118 434 
C 1978 171 1773 25 1478 25 
z
" id="CMR17-36" transform="scale(0.015625)"/>
       </defs>
       <use transform="scale(0.996264)" xlink:href="#CMR17-31"/>
       <use transform="translate(45.690477 0)scale(0.996264)" xlink:href="#CMR17-36"/>
       <use transform="translate(91.380954 0)scale(0.996264)" xlink:href="#CMR17-30"/>
       <use transform="translate(137.071431 0)scale(0.996264)" xlink:href="#CMR17-30"/>
      </g>
     </g>
    </g>
    <g id="ytick_3">
     <g id="line2d_12">
      <g>
       <use style="stroke:#000000;stroke-width:0.8;" x="57.6" xlink:href="#mb4255d7bdb" y="209.970796"/>
      </g>
     </g>
     <g id="text_12">
      <!-- $\mathdefault{1800}$ -->
      <g transform="translate(30.674659 213.401534)scale(0.1 -0.1)">
       <defs>
        <path d="M 1741 2264 
C 2144 2467 2554 2773 2554 3263 
C 2554 3841 1990 4179 1472 4179 
C 890 4179 378 3759 378 3180 
C 378 3021 416 2747 666 2505 
C 730 2442 998 2251 1171 2130 
C 883 1983 211 1634 211 934 
C 211 279 838 -128 1459 -128 
C 2144 -128 2720 362 2720 1010 
C 2720 1590 2330 1857 2074 2029 
L 1741 2264 
z
M 902 2822 
C 851 2854 595 3051 595 3351 
C 595 3739 998 4032 1459 4032 
C 1965 4032 2336 3676 2336 3262 
C 2336 2669 1670 2331 1638 2331 
C 1632 2331 1626 2331 1574 2370 
L 902 2822 
z
M 2080 1519 
C 2176 1449 2483 1240 2483 851 
C 2483 381 2010 25 1472 25 
C 890 25 448 438 448 940 
C 448 1443 838 1862 1280 2060 
L 2080 1519 
z
" id="CMR17-38" transform="scale(0.015625)"/>
       </defs>
       <use transform="scale(0.996264)" xlink:href="#CMR17-31"/>
       <use transform="translate(45.690477 0)scale(0.996264)" xlink:href="#CMR17-38"/>
       <use transform="translate(91.380954 0)scale(0.996264)" xlink:href="#CMR17-30"/>
       <use transform="translate(137.071431 0)scale(0.996264)" xlink:href="#CMR17-30"/>
      </g>
     </g>
    </g>
    <g id="ytick_4">
     <g id="line2d_13">
      <g>
       <use style="stroke:#000000;stroke-width:0.8;" x="57.6" xlink:href="#mb4255d7bdb" y="163.035561"/>
      </g>
     </g>
     <g id="text_13">
      <!-- $\mathdefault{2000}$ -->
      <g transform="translate(30.674659 166.4663)scale(0.1 -0.1)">
       <use transform="scale(0.996264)" xlink:href="#CMR17-32"/>
       <use transform="translate(45.690477 0)scale(0.996264)" xlink:href="#CMR17-30"/>
       <use transform="translate(91.380954 0)scale(0.996264)" xlink:href="#CMR17-30"/>
       <use transform="translate(137.071431 0)scale(0.996264)" xlink:href="#CMR17-30"/>
      </g>
     </g>
    </g>
    <g id="ytick_5">
     <g id="line2d_14">
      <g>
       <use style="stroke:#000000;stroke-width:0.8;" x="57.6" xlink:href="#mb4255d7bdb" y="116.100327"/>
      </g>
     </g>
     <g id="text_14">
      <!-- $\mathdefault{2200}$ -->
      <g transform="translate(30.674659 119.531065)scale(0.1 -0.1)">
       <use transform="scale(0.996264)" xlink:href="#CMR17-32"/>
       <use transform="translate(45.690477 0)scale(0.996264)" xlink:href="#CMR17-32"/>
       <use transform="translate(91.380954 0)scale(0.996264)" xlink:href="#CMR17-30"/>
       <use transform="translate(137.071431 0)scale(0.996264)" xlink:href="#CMR17-30"/>
      </g>
     </g>
    </g>
    <g id="ytick_6">
     <g id="line2d_15">
      <g>
       <use style="stroke:#000000;stroke-width:0.8;" x="57.6" xlink:href="#mb4255d7bdb" y="69.165092"/>
      </g>
     </g>
     <g id="text_15">
      <!-- $\mathdefault{2400}$ -->
      <g transform="translate(30.674659 72.595831)scale(0.1 -0.1)">
       <use transform="scale(0.996264)" xlink:href="#CMR17-32"/>
       <use transform="translate(45.690477 0)scale(0.996264)" xlink:href="#CMR17-34"/>
       <use transform="translate(91.380954 0)scale(0.996264)" xlink:href="#CMR17-30"/>
       <use transform="translate(137.071431 0)scale(0.996264)" xlink:href="#CMR17-30"/>
      </g>
     </g>
    </g>
   </g>
   <g id="line2d_16">
    <path clip-path="url(#pf37e632abc)" d="M 73.832727 250.257268 
L 82.157203 165.997462 
L 90.481678 147.418175 
L 98.806154 143.321442 
L 107.130629 142.418112 
L 115.455105 142.218928 
L 123.77958 142.175008 
L 132.104056 142.165324 
L 140.428531 142.163188 
L 148.753007 142.162717 
L 157.077483 142.162614 
L 165.401958 142.162591 
L 173.726434 142.162586 
L 182.050909 142.162584 
L 190.375385 142.162584 
L 198.69986 142.162584 
L 207.024336 142.162584 
L 215.348811 142.162584 
L 223.673287 142.162584 
L 231.997762 142.162584 
L 240.322238 142.162584 
L 248.646713 142.162584 
L 256.971189 142.162584 
L 265.295664 142.162584 
L 273.62014 142.162584 
L 281.944615 142.162584 
L 290.269091 142.162584 
L 298.593566 142.162584 
L 306.918042 142.162584 
L 315.242517 142.162584 
L 323.566993 142.162585 
L 331.891469 142.16259 
L 340.215944 142.162618 
L 348.54042 142.162773 
L 356.864895 142.163649 
L 365.189371 142.168586 
L 373.513846 142.196443 
L 381.838322 142.354291 
L 390.162797 143.271136 
L 398.487273 149.48364 
" style="fill:none;stroke:#1f77b4;stroke-linecap:square;stroke-width:1.5;"/>
   </g>
   <g id="line2d_17">
    <path clip-path="url(#pf37e632abc)" d="M 73.832727 290.419308 
L 82.157203 210.961096 
L 90.481678 189.611653 
L 98.806154 181.287912 
L 107.130629 176.037237 
L 115.455105 171.653912 
L 123.77958 167.641034 
L 132.104056 163.879082 
L 140.428531 160.332299 
L 148.753007 156.98392 
L 157.077483 153.821862 
L 165.401958 150.83554 
L 173.726434 148.01514 
L 182.050909 145.351432 
L 190.375385 142.835708 
L 198.69986 140.459747 
L 207.024336 138.215783 
L 215.348811 136.096485 
L 223.673287 134.094925 
L 231.997762 132.204563 
L 240.322238 130.419221 
L 248.646713 128.733064 
L 256.971189 127.140583 
L 265.295664 125.636574 
L 273.62014 124.21612 
L 281.944615 122.87458 
L 290.269091 121.607571 
L 298.593566 120.41095 
L 306.918042 119.280809 
L 315.242517 118.213454 
L 323.566993 117.205398 
L 331.891469 116.253354 
L 340.215944 115.354236 
L 348.54042 114.505225 
L 356.864895 113.70406 
L 365.189371 112.950373 
L 373.513846 112.251557 
L 381.838322 111.649014 
L 390.162797 111.344808 
L 398.487273 112.574047 
" style="fill:none;stroke:#ff7f0e;stroke-linecap:square;stroke-width:1.5;"/>
   </g>
   <g id="line2d_18">
    <path clip-path="url(#pf37e632abc)" d="M 73.832727 295.488 
L 82.157203 190.082298 
L 90.481678 154.365731 
L 98.806154 139.783397 
L 107.130629 131.756186 
L 115.455105 125.898429 
L 123.77958 120.883153 
L 132.104056 116.301618 
L 140.428531 112.021147 
L 148.753007 107.99244 
L 157.077483 104.191738 
L 165.401958 100.603443 
L 173.726434 97.214875 
L 182.050909 94.014674 
L 190.375385 90.992295 
L 198.69986 88.137837 
L 207.024336 85.441962 
L 215.348811 82.895859 
L 223.673287 80.491207 
L 231.997762 78.220147 
L 240.322238 76.075257 
L 248.646713 74.049527 
L 256.971189 72.136338 
L 265.295664 70.329437 
L 273.62014 68.622919 
L 281.944615 67.011208 
L 290.269091 65.489037 
L 298.593566 64.051432 
L 306.918042 62.693698 
L 315.242517 61.411405 
L 323.566993 60.200386 
L 331.891469 59.056764 
L 340.215944 57.977052 
L 348.54042 56.958533 
L 356.864895 56.000482 
L 365.189371 55.108156 
L 373.513846 54.305883 
L 381.838322 53.681977 
L 390.162797 53.568 
L 398.487273 55.697123 
" style="fill:none;stroke:#2ca02c;stroke-linecap:square;stroke-width:1.5;"/>
   </g>
   <g id="line2d_19">
    <path clip-path="url(#pf37e632abc)" d="M 73.832727 276.109841 
L 82.157203 272.850675 
L 90.481678 269.772574 
L 98.806154 266.865479 
L 107.130629 264.119888 
L 115.455105 261.526831 
L 123.77958 259.077832 
L 132.104056 256.764889 
L 140.428531 254.580443 
L 148.753007 252.517355 
L 157.077483 250.568883 
L 165.401958 248.728659 
L 173.726434 246.99067 
L 182.050909 245.349236 
L 190.375385 243.798993 
L 198.69986 242.334874 
L 207.024336 240.952095 
L 215.348811 239.646138 
L 223.673287 238.412733 
L 231.997762 237.247851 
L 240.322238 236.147685 
L 248.646713 235.108639 
L 256.971189 234.127317 
L 265.295664 233.200514 
L 273.62014 232.3252 
L 281.944615 231.498514 
L 290.269091 230.717755 
L 298.593566 229.980372 
L 306.918042 229.283954 
L 315.242517 228.626227 
L 323.566993 228.005039 
L 331.891469 227.418363 
L 340.215944 226.864279 
L 348.54042 226.340978 
L 356.864895 225.846749 
L 365.189371 225.379977 
L 373.513846 224.939137 
L 381.838322 224.522788 
L 390.162797 224.12957 
L 398.487273 223.758197 
" style="fill:none;stroke:#d62728;stroke-linecap:square;stroke-width:1.5;"/>
   </g>
   <g id="patch_3">
    <path d="M 57.6 307.584 
L 57.6 41.472 
" style="fill:none;stroke:#000000;stroke-linecap:square;stroke-linejoin:miter;stroke-width:0.8;"/>
   </g>
   <g id="patch_4">
    <path d="M 414.72 307.584 
L 414.72 41.472 
" style="fill:none;stroke:#000000;stroke-linecap:square;stroke-linejoin:miter;stroke-width:0.8;"/>
   </g>
   <g id="patch_5">
    <path d="M 57.6 307.584 
L 414.72 307.584 
" style="fill:none;stroke:#000000;stroke-linecap:square;stroke-linejoin:miter;stroke-width:0.8;"/>
   </g>
   <g id="patch_6">
    <path d="M 57.6 41.472 
L 414.72 41.472 
" style="fill:none;stroke:#000000;stroke-linecap:square;stroke-linejoin:miter;stroke-width:0.8;"/>
   </g>
   <g id="text_16">
    <!-- Labor Hours over the Life Cycle -->
    <g transform="translate(153.558774 35.472)scale(0.12 -0.12)">
     <defs>
      <path d="M 467 4365 
L 467 4224 
L 576 4224 
C 742 4224 877 4205 877 3955 
L 877 410 
C 877 160 768 141 467 141 
L 467 0 
L 3206 0 
L 3341 1592 
L 3258 1592 
C 3219 1100 3194 397 2470 192 
C 2278 141 2086 141 1888 141 
L 1376 141 
C 1242 141 1184 205 1184 346 
C 1184 391 1190 429 1190 468 
L 1190 3809 
C 1190 3854 1184 3905 1184 3955 
C 1184 4179 1306 4224 1562 4224 
L 1702 4224 
L 1702 4365 
L 467 4365 
z
" id="SFRM3583-4c" transform="scale(0.015625)"/>
      <path d="M 576 2080 
C 659 2413 883 2740 1274 2740 
C 1619 2740 1869 2415 1920 2101 
C 1933 2018 1933 1928 1933 1846 
L 1933 1597 
C 1318 1597 474 1456 320 686 
C 314 647 314 603 314 564 
C 314 134 800 -32 1133 -32 
C 1446 -32 1856 177 1939 535 
L 1946 535 
C 1946 268 2125 0 2394 0 
C 2746 0 2829 376 2829 650 
L 2829 936 
L 2746 936 
L 2746 612 
C 2746 408 2701 115 2470 115 
C 2208 115 2195 453 2195 625 
L 2195 1810 
C 2195 1969 2189 2134 2125 2288 
C 1990 2599 1638 2816 1293 2816 
C 800 2816 480 2386 480 1918 
C 480 1798 570 1728 672 1728 
C 774 1728 858 1811 858 1914 
C 858 2010 794 2099 672 2099 
C 640 2099 608 2093 576 2080 
z
M 1933 1527 
L 1933 898 
C 1933 475 1670 77 1229 45 
L 1190 45 
C 896 45 627 276 627 590 
C 627 1257 1363 1527 1933 1527 
z
" id="SFRM3583-61" transform="scale(0.015625)"/>
      <path d="M 288 4365 
L 288 4224 
L 365 4224 
C 570 4224 666 4147 666 3930 
L 666 7 
L 749 20 
L 896 522 
C 1114 239 1267 -32 1722 -32 
C 2445 -32 2912 703 2912 1412 
C 2912 2062 2515 2745 1862 2816 
L 1805 2816 
C 1459 2816 1088 2629 928 2302 
L 922 4435 
L 288 4365 
z
M 2579 1244 
C 2554 941 2509 631 2317 380 
C 2157 180 1926 45 1677 45 
C 1280 45 928 445 928 754 
L 928 1799 
C 928 1870 922 1934 922 2005 
C 922 2391 1357 2740 1741 2740 
C 2458 2740 2586 1831 2586 1386 
C 2586 1341 2586 1289 2579 1244 
z
" id="SFRM3583-62" transform="scale(0.015625)"/>
      <path d="M 1350 2816 
C 614 2726 237 2042 237 1376 
C 237 698 685 -32 1440 -32 
L 1504 -32 
C 2240 58 2624 736 2624 1382 
C 2624 2035 2182 2822 1440 2822 
C 1408 2822 1382 2816 1350 2816 
z
M 563 1274 
L 563 1376 
C 563 1856 621 2395 1114 2663 
C 1197 2702 1293 2734 1389 2734 
L 1434 2734 
C 2054 2734 2298 2012 2298 1495 
C 2298 990 2246 269 1606 77 
C 1549 64 1491 51 1434 51 
C 960 51 653 525 595 979 
C 576 1075 576 1178 563 1274 
z
" id="SFRM3583-6f" transform="scale(0.015625)"/>
      <path d="M 288 2746 
L 288 2605 
L 352 2605 
C 557 2605 666 2560 666 2275 
L 666 361 
C 666 154 512 141 288 141 
L 288 0 
L 1389 0 
L 1389 141 
L 1261 141 
C 1075 141 922 160 922 407 
L 922 1350 
C 922 1900 1037 2740 1658 2740 
C 1728 2740 1798 2721 1862 2695 
C 1786 2663 1722 2611 1722 2520 
C 1722 2430 1792 2339 1901 2339 
C 1997 2339 2074 2423 2074 2519 
C 2074 2732 1837 2816 1664 2816 
C 1274 2816 979 2435 922 2080 
L 915 2816 
L 288 2746 
z
" id="SFRM3583-72" transform="scale(0.015625)"/>
      <path d="M 467 4365 
L 467 4224 
L 576 4224 
C 742 4224 877 4205 877 3955 
L 877 410 
C 877 160 768 141 467 141 
L 467 0 
L 1600 0 
L 1600 141 
L 1491 141 
C 1331 141 1190 160 1190 400 
L 1190 2227 
L 3104 2227 
L 3104 400 
C 3104 180 3021 141 2694 141 
L 2694 0 
L 3827 0 
L 3827 141 
L 3718 141 
C 3552 141 3411 160 3411 410 
C 3411 460 3418 505 3418 556 
L 3418 3955 
C 3418 4205 3526 4224 3827 4224 
L 3827 4365 
L 2694 4365 
L 2694 4224 
L 2810 4224 
C 2970 4224 3104 4205 3104 3978 
L 3104 2368 
L 1190 2368 
L 1190 3978 
C 1190 4174 1267 4224 1600 4224 
L 1600 4365 
L 467 4365 
z
" id="SFRM3583-48" transform="scale(0.015625)"/>
      <path d="M 301 2732 
L 301 2592 
L 358 2592 
C 570 2592 685 2560 685 2181 
C 685 2098 678 2015 678 1930 
L 678 904 
C 678 443 762 -32 1459 -32 
C 1856 -32 2170 248 2266 620 
L 2272 0 
L 2906 0 
L 2906 160 
L 2842 160 
C 2675 160 2528 179 2528 447 
L 2528 2803 
L 1888 2732 
L 1888 2592 
L 1958 2592 
C 2176 2592 2266 2521 2266 2258 
L 2266 1077 
C 2266 609 2042 45 1491 45 
C 1318 45 1133 102 1030 250 
C 947 366 941 526 941 673 
L 941 2803 
L 301 2732 
z
" id="SFRM3583-75" transform="scale(0.015625)"/>
      <path d="M 422 384 
C 576 141 781 -32 1126 -32 
C 1549 -32 2067 147 2067 764 
C 2067 1071 1901 1353 1600 1501 
C 1216 1694 538 1604 384 2085 
C 371 2123 365 2168 365 2213 
C 365 2592 749 2752 1094 2752 
C 1466 2752 1786 2539 1837 1937 
C 1843 1905 1837 1822 1882 1822 
C 1920 1822 1926 1854 1926 1893 
L 1926 2758 
C 1926 2784 1926 2816 1901 2816 
C 1869 2816 1766 2636 1734 2540 
C 1562 2722 1376 2816 1120 2816 
C 730 2816 192 2688 192 2108 
C 192 1424 1030 1424 1408 1289 
C 1670 1200 1894 975 1894 686 
L 1894 673 
C 1882 269 1568 45 1139 45 
C 544 45 371 604 294 1065 
C 288 1104 288 1181 237 1181 
C 198 1181 192 1155 192 1123 
L 192 26 
C 192 6 192 -19 211 -26 
L 218 -26 
C 262 -26 371 256 422 384 
z
" id="SFRM3583-73" transform="scale(0.015625)"/>
      <path d="M 90 2752 
L 90 2612 
L 134 2612 
C 454 2612 461 2484 678 1948 
C 922 1341 1152 734 1402 128 
C 1421 77 1440 -32 1510 -32 
C 1594 -32 1734 415 1824 638 
C 2022 1136 2214 1634 2413 2133 
C 2502 2350 2624 2612 2931 2612 
L 2931 2752 
L 2189 2752 
L 2189 2612 
C 2304 2612 2394 2496 2394 2388 
C 2394 2273 2330 2145 2291 2049 
C 2144 1686 2003 1328 1862 964 
L 1709 580 
C 1670 492 1632 409 1606 319 
L 1600 319 
C 1549 517 1453 722 1370 915 
L 928 2029 
C 870 2171 768 2369 768 2465 
L 768 2478 
C 768 2612 928 2612 1018 2612 
L 1018 2752 
L 710 2752 
L 90 2752 
z
" id="SFRM3583-76" transform="scale(0.015625)"/>
      <path d="M 563 1524 
L 2246 1524 
C 2259 1524 2285 1517 2310 1517 
C 2355 1517 2374 1543 2374 1581 
C 2374 2154 2099 2816 1382 2816 
C 614 2816 237 2031 237 1405 
C 237 778 589 70 1350 -26 
C 1376 -26 1402 -32 1427 -32 
C 1869 -32 2208 273 2355 686 
C 2362 705 2368 730 2368 749 
C 2368 768 2362 787 2336 787 
C 2272 787 2266 686 2246 628 
C 2118 324 1843 57 1485 57 
C 1216 57 960 210 813 425 
C 576 742 563 1149 563 1524 
z
M 570 1600 
C 582 2103 832 2740 1370 2740 
C 1818 2740 2010 2264 2061 1890 
C 2067 1793 2067 1697 2080 1600 
L 570 1600 
z
" id="SFRM3583-65" transform="scale(0.015625)"/>
      <path d="M 845 3936 
C 845 3572 762 2688 109 2688 
L 109 2612 
L 666 2612 
L 666 1136 
C 666 1048 659 945 659 849 
C 659 453 787 -32 1318 -32 
C 1811 -32 1907 511 1907 907 
L 1907 1155 
L 1824 1155 
C 1824 1059 1830 964 1830 862 
C 1830 575 1773 51 1376 51 
C 1005 51 922 505 922 849 
C 922 958 928 1060 928 1168 
L 928 2612 
L 1811 2612 
L 1811 2752 
L 928 2752 
L 928 3936 
L 845 3936 
z
" id="SFRM3583-74" transform="scale(0.015625)"/>
      <path d="M 301 4365 
L 301 4224 
L 378 4224 
C 602 4224 678 4128 678 3911 
L 678 372 
C 678 180 595 141 301 141 
L 301 0 
L 1318 0 
L 1318 141 
L 1229 141 
C 1082 141 941 160 941 361 
L 941 1777 
C 979 2217 1203 2740 1709 2740 
C 2112 2740 2266 2417 2266 1951 
L 2266 361 
C 2266 154 2112 141 1888 141 
L 1888 0 
L 2906 0 
L 2906 141 
L 2803 141 
C 2656 141 2528 160 2528 386 
L 2528 1879 
C 2528 2312 2445 2816 1760 2816 
C 1427 2816 1178 2629 1030 2358 
C 992 2293 954 2217 941 2145 
L 934 4435 
L 301 4365 
z
" id="SFRM3583-68" transform="scale(0.015625)"/>
      <path d="M 326 2735 
L 326 2593 
L 358 2593 
C 563 2593 678 2561 678 2251 
L 678 360 
C 678 154 531 141 307 141 
L 307 0 
L 1274 0 
L 1274 141 
L 1190 141 
C 1056 141 934 154 934 373 
L 934 2805 
L 326 2735 
z
M 698 4160 
C 595 4160 531 4045 531 3962 
C 531 3866 608 3751 730 3751 
C 858 3751 934 3857 934 3952 
C 934 4046 858 4160 736 4160 
C 723 4160 710 4160 698 4160 
z
" id="SFRM3583-69" transform="scale(0.015625)"/>
      <path d="M 678 2752 
L 166 2752 
L 166 2612 
L 678 2612 
L 678 359 
C 678 154 531 141 307 141 
L 307 0 
L 1402 0 
L 1402 141 
L 1261 141 
C 1088 141 934 160 934 384 
L 934 2612 
L 1651 2612 
L 1651 2752 
L 928 2752 
L 928 3386 
C 928 3764 998 4404 1446 4404 
L 1472 4404 
C 1562 4391 1632 4359 1709 4314 
C 1626 4288 1523 4263 1523 4135 
C 1523 4039 1600 3956 1702 3956 
C 1818 3956 1875 4058 1875 4141 
C 1875 4372 1645 4480 1446 4480 
C 1139 4480 864 4231 755 3956 
C 678 3770 678 3572 678 3373 
L 678 2752 
z
" id="SFRM3583-66" transform="scale(0.015625)"/>
      <path d="M 3501 3725 
C 3187 4096 2899 4429 2285 4429 
C 1120 4429 320 3301 320 2185 
C 320 1051 1133 -64 2285 -64 
C 3142 -64 3821 682 3821 1523 
L 3821 1548 
C 3814 1567 3802 1574 3782 1574 
C 3718 1574 3712 1211 3654 1051 
C 3475 504 2995 77 2374 77 
C 1779 77 1242 446 960 943 
C 742 1319 678 1778 678 2204 
C 678 3212 1242 4288 2374 4288 
C 3213 4288 3654 3460 3725 2785 
C 3731 2746 3744 2708 3776 2708 
C 3814 2708 3821 2734 3821 2765 
L 3821 4371 
C 3821 4393 3821 4421 3802 4429 
L 3795 4429 
C 3744 4429 3526 3827 3501 3725 
z
" id="SFRM3583-43" transform="scale(0.015625)"/>
      <path d="M 90 2816 
L 90 2676 
L 134 2676 
C 435 2676 442 2598 672 2024 
C 915 1424 1178 818 1395 212 
C 1421 161 1453 102 1453 44 
C 1453 32 1453 12 1446 0 
C 1389 -161 1318 -322 1254 -483 
C 1139 -772 992 -1171 627 -1171 
C 493 -1171 352 -1114 256 -1024 
C 358 -1024 448 -966 448 -851 
C 448 -755 371 -685 275 -685 
C 186 -685 109 -749 109 -864 
C 109 -1114 390 -1248 614 -1248 
C 1043 -1248 1210 -816 1350 -462 
C 1651 292 1971 1033 2253 1793 
L 2368 2083 
C 2464 2334 2573 2676 2931 2676 
L 2931 2816 
L 2189 2816 
L 2189 2676 
C 2304 2676 2394 2559 2394 2450 
C 2394 2333 2330 2211 2291 2115 
C 2138 1734 1984 1360 1837 979 
L 1683 599 
C 1658 527 1626 463 1606 392 
L 1600 392 
C 1581 463 1549 534 1523 599 
L 1382 953 
C 1235 1334 1082 1709 928 2089 
L 819 2360 
C 800 2411 774 2463 768 2515 
L 768 2527 
C 768 2656 922 2676 1018 2676 
L 1018 2816 
L 717 2816 
L 90 2816 
z
" id="SFRM3583-79" transform="scale(0.015625)"/>
      <path d="M 2221 2092 
C 2189 2099 2157 2105 2125 2105 
C 2022 2105 1946 2016 1946 1920 
C 1946 1824 2022 1728 2131 1728 
C 2221 1728 2310 1792 2323 1888 
L 2323 1926 
C 2323 2366 1965 2819 1440 2819 
C 717 2819 269 2069 269 1390 
C 269 718 678 32 1363 -32 
L 1427 -32 
C 1882 -32 2240 257 2368 688 
C 2374 713 2381 739 2381 765 
C 2381 784 2368 790 2355 790 
C 2285 790 2272 669 2246 604 
C 2131 276 1824 51 1498 51 
C 890 51 595 769 595 1295 
C 595 1833 710 2737 1453 2737 
C 1811 2737 2138 2443 2221 2092 
z
" id="SFRM3583-63" transform="scale(0.015625)"/>
      <path d="M 307 4365 
L 307 4224 
L 384 4224 
C 608 4224 678 4121 678 3911 
L 678 372 
C 678 180 595 141 307 141 
L 307 0 
L 1306 0 
L 1306 141 
L 1203 141 
C 1062 141 934 160 934 365 
L 934 4435 
L 307 4365 
z
" id="SFRM3583-6c" transform="scale(0.015625)"/>
     </defs>
     <use transform="scale(0.996264)" xlink:href="#SFRM3583-4c"/>
     <use transform="translate(55.709683 0)scale(0.996264)" xlink:href="#SFRM3583-61"/>
     <use transform="translate(100.28815 0)scale(0.996264)" xlink:href="#SFRM3583-62"/>
     <use transform="translate(152.306551 0)scale(0.996264)" xlink:href="#SFRM3583-6f"/>
     <use transform="translate(196.885018 0)scale(0.996264)" xlink:href="#SFRM3583-72"/>
     <use transform="translate(261.241657 0)scale(0.996264)" xlink:href="#SFRM3583-48"/>
     <use transform="translate(328.082648 0)scale(0.996264)" xlink:href="#SFRM3583-6f"/>
     <use transform="translate(372.661115 0)scale(0.996264)" xlink:href="#SFRM3583-75"/>
     <use transform="translate(422.199543 0)scale(0.996264)" xlink:href="#SFRM3583-72"/>
     <use transform="translate(456.857889 0)scale(0.996264)" xlink:href="#SFRM3583-73"/>
     <use transform="translate(521.710578 0)scale(0.996264)" xlink:href="#SFRM3583-6f"/>
     <use transform="translate(563.809056 0)scale(0.996264)" xlink:href="#SFRM3583-76"/>
     <use transform="translate(608.387507 0)scale(0.996264)" xlink:href="#SFRM3583-65"/>
     <use transform="translate(648.005906 0)scale(0.996264)" xlink:href="#SFRM3583-72"/>
     <use transform="translate(712.362545 0)scale(0.996264)" xlink:href="#SFRM3583-74"/>
     <use transform="translate(747.020892 0)scale(0.996264)" xlink:href="#SFRM3583-68"/>
     <use transform="translate(796.55932 0)scale(0.996264)" xlink:href="#SFRM3583-65"/>
     <use transform="translate(865.876012 0)scale(0.996264)" xlink:href="#SFRM3583-4c"/>
     <use transform="translate(921.585695 0)scale(0.996264)" xlink:href="#SFRM3583-69"/>
     <use transform="translate(946.324027 0)scale(0.996264)" xlink:href="#SFRM3583-66"/>
     <use transform="translate(973.542331 0)scale(0.996264)" xlink:href="#SFRM3583-65"/>
     <use transform="translate(1042.859024 0)scale(0.996264)" xlink:href="#SFRM3583-43"/>
     <use transform="translate(1107.27761 0)scale(0.996264)" xlink:href="#SFRM3583-79"/>
     <use transform="translate(1154.33605 0)scale(0.996264)" xlink:href="#SFRM3583-63"/>
     <use transform="translate(1193.954449 0)scale(0.996264)" xlink:href="#SFRM3583-6c"/>
     <use transform="translate(1218.69278 0)scale(0.996264)" xlink:href="#SFRM3583-65"/>
    </g>
   </g>
   <g id="legend_1">
    <g id="patch_7">
     <path d="M 310.950982 302.584 
L 407.72 302.584 
Q 409.72 302.584 409.72 300.584 
L 409.72 245.837172 
Q 409.72 243.837172 407.72 243.837172 
L 310.950982 243.837172 
Q 308.950982 243.837172 308.950982 245.837172 
L 308.950982 300.584 
Q 308.950982 302.584 310.950982 302.584 
z
" style="fill:#ffffff;opacity:0.8;stroke:#cccccc;stroke-linejoin:miter;"/>
    </g>
    <g id="line2d_20">
     <path d="M 312.950982 251.337172 
L 332.950982 251.337172 
" style="fill:none;stroke:#1f77b4;stroke-linecap:square;stroke-width:1.5;"/>
    </g>
    <g id="line2d_21"/>
    <g id="text_17">
     <!-- Original -->
     <g transform="translate(340.950982 254.837172)scale(0.1 -0.1)">
      <defs>
       <path d="M 2125 4419 
C 928 4278 320 3201 320 2173 
C 320 1114 1018 -79 2240 -79 
C 3424 -79 4134 1107 4134 2167 
C 4134 3252 3411 4419 2208 4419 
L 2125 4419 
z
M 678 2103 
L 678 2199 
C 678 2786 800 3386 1203 3839 
C 1446 4120 1824 4337 2208 4337 
C 3226 4337 3776 3252 3776 2256 
C 3776 1421 3482 298 2522 43 
C 2432 17 2336 4 2240 4 
C 1325 4 819 948 698 1841 
C 691 1931 691 2013 678 2103 
z
" id="SFRM3583-4f" transform="scale(0.015625)"/>
       <path d="M 659 1252 
L 659 1246 
C 531 1119 474 909 474 731 
C 474 503 570 358 749 218 
C 448 167 154 -130 154 -457 
C 154 -1004 896 -1248 1421 -1248 
C 1933 -1248 2701 -1055 2701 -419 
C 2701 -66 2464 204 2138 307 
C 1907 384 1658 384 1414 384 
L 1222 384 
C 1165 384 1107 384 1050 384 
C 742 384 582 580 582 848 
C 582 965 646 1200 710 1200 
L 717 1200 
C 755 1200 870 1106 947 1075 
C 1050 1031 1158 1012 1274 1012 
C 1805 1012 2144 1462 2144 1918 
C 2144 2125 2067 2375 1914 2525 
L 1914 2532 
C 2086 2679 2266 2804 2490 2804 
C 2534 2804 2579 2794 2624 2771 
C 2586 2744 2554 2704 2554 2651 
C 2554 2584 2611 2537 2669 2537 
C 2746 2537 2784 2592 2784 2654 
C 2784 2818 2630 2880 2502 2880 
C 2291 2880 2086 2781 1920 2634 
C 1907 2620 1882 2599 1862 2599 
C 1824 2599 1696 2706 1613 2749 
C 1504 2793 1389 2819 1274 2819 
C 742 2819 397 2356 397 1899 
C 397 1683 480 1398 659 1252 
z
M 358 -509 
L 358 -458 
C 358 -219 506 18 717 115 
C 826 167 941 167 1062 167 
L 1594 167 
C 1958 167 2502 39 2502 -460 
C 2502 -960 1850 -1172 1434 -1172 
C 1005 -1172 422 -972 358 -509 
z
M 710 1787 
L 710 1868 
C 710 2212 787 2737 1267 2737 
C 1683 2737 1830 2324 1830 1937 
C 1830 1669 1805 1319 1523 1163 
C 1446 1113 1357 1088 1274 1088 
C 896 1088 749 1450 710 1787 
z
" id="SFRM3583-67" transform="scale(0.015625)"/>
       <path d="M 301 2746 
L 301 2605 
L 365 2605 
C 570 2605 678 2560 678 2275 
L 678 361 
C 678 154 525 141 301 141 
L 301 0 
L 1318 0 
L 1318 141 
L 1229 141 
C 1082 141 941 160 941 361 
L 941 1777 
C 979 2217 1203 2740 1709 2740 
C 2112 2740 2266 2417 2266 1951 
L 2266 361 
C 2266 154 2112 141 1888 141 
L 1888 0 
L 2906 0 
L 2906 141 
L 2803 141 
C 2656 141 2528 160 2528 386 
L 2528 1885 
C 2528 2299 2451 2816 1760 2816 
C 1414 2816 1178 2629 1024 2352 
C 986 2281 947 2204 934 2126 
L 928 2816 
L 301 2746 
z
" id="SFRM3583-6e" transform="scale(0.015625)"/>
      </defs>
      <use transform="scale(0.996264)" xlink:href="#SFRM3583-4f"/>
      <use transform="translate(69.378548 0)scale(0.996264)" xlink:href="#SFRM3583-72"/>
      <use transform="translate(104.036894 0)scale(0.996264)" xlink:href="#SFRM3583-69"/>
      <use transform="translate(128.775226 0)scale(0.996264)" xlink:href="#SFRM3583-67"/>
      <use transform="translate(173.353693 0)scale(0.996264)" xlink:href="#SFRM3583-69"/>
      <use transform="translate(198.092024 0)scale(0.996264)" xlink:href="#SFRM3583-6e"/>
      <use transform="translate(247.630453 0)scale(0.996264)" xlink:href="#SFRM3583-61"/>
      <use transform="translate(292.208919 0)scale(0.996264)" xlink:href="#SFRM3583-6c"/>
     </g>
    </g>
    <g id="line2d_22">
     <path d="M 312.950982 265.273879 
L 332.950982 265.273879 
" style="fill:none;stroke:#ff7f0e;stroke-linecap:square;stroke-width:1.5;"/>
    </g>
    <g id="line2d_23"/>
    <g id="text_18">
     <!-- Realistic -->
     <g transform="translate(340.950982 268.773879)scale(0.1 -0.1)">
      <defs>
       <path d="M 467 4352 
L 467 4237 
L 576 4237 
C 742 4237 877 4218 877 3968 
L 877 410 
C 877 160 768 141 467 141 
L 467 0 
L 1594 0 
L 1594 141 
L 1485 141 
C 1325 141 1184 160 1184 399 
L 1184 2164 
L 1658 2164 
C 1747 2164 1837 2164 1926 2164 
C 2368 2164 2874 1934 2931 1378 
L 2931 861 
C 2931 532 2970 -76 3712 -76 
C 4019 -76 4179 216 4205 495 
L 4205 527 
C 4205 554 4198 586 4166 586 
C 4122 586 4115 528 4115 482 
L 4115 457 
C 4090 242 3955 0 3725 0 
C 3347 0 3309 474 3290 772 
C 3238 1410 3251 1990 2381 2196 
C 2810 2331 3206 2440 3437 2929 
C 3475 3026 3501 3135 3501 3245 
C 3501 3972 2739 4352 2086 4352 
L 467 4352 
z
M 1184 2240 
L 1184 4059 
C 1184 4173 1235 4237 1357 4237 
L 1907 4237 
C 2483 4237 3142 3988 3142 3235 
C 3142 2693 2758 2374 2259 2265 
C 2099 2240 1933 2240 1773 2240 
L 1184 2240 
z
" id="SFRM3583-52" transform="scale(0.015625)"/>
      </defs>
      <use transform="scale(0.996264)" xlink:href="#SFRM3583-52"/>
      <use transform="translate(65.629789 0)scale(0.996264)" xlink:href="#SFRM3583-65"/>
      <use transform="translate(105.248187 0)scale(0.996264)" xlink:href="#SFRM3583-61"/>
      <use transform="translate(149.826654 0)scale(0.996264)" xlink:href="#SFRM3583-6c"/>
      <use transform="translate(174.564986 0)scale(0.996264)" xlink:href="#SFRM3583-69"/>
      <use transform="translate(199.303318 0)scale(0.996264)" xlink:href="#SFRM3583-73"/>
      <use transform="translate(234.457713 0)scale(0.996264)" xlink:href="#SFRM3583-74"/>
      <use transform="translate(269.116059 0)scale(0.996264)" xlink:href="#SFRM3583-69"/>
      <use transform="translate(293.854391 0)scale(0.996264)" xlink:href="#SFRM3583-63"/>
     </g>
    </g>
    <g id="line2d_24">
     <path d="M 312.950982 279.210586 
L 332.950982 279.210586 
" style="fill:none;stroke:#2ca02c;stroke-linecap:square;stroke-width:1.5;"/>
    </g>
    <g id="line2d_25"/>
    <g id="text_19">
     <!-- Counterfactual -->
     <g transform="translate(340.950982 282.710586)scale(0.1 -0.1)">
      <use transform="scale(0.996264)" xlink:href="#SFRM3583-43"/>
      <use transform="translate(64.418587 0)scale(0.996264)" xlink:href="#SFRM3583-6f"/>
      <use transform="translate(108.997053 0)scale(0.996264)" xlink:href="#SFRM3583-75"/>
      <use transform="translate(158.535482 0)scale(0.996264)" xlink:href="#SFRM3583-6e"/>
      <use transform="translate(205.593921 0)scale(0.996264)" xlink:href="#SFRM3583-74"/>
      <use transform="translate(240.252267 0)scale(0.996264)" xlink:href="#SFRM3583-65"/>
      <use transform="translate(279.870666 0)scale(0.996264)" xlink:href="#SFRM3583-72"/>
      <use transform="translate(314.529012 0)scale(0.996264)" xlink:href="#SFRM3583-66"/>
      <use transform="translate(341.747317 0)scale(0.996264)" xlink:href="#SFRM3583-61"/>
      <use transform="translate(386.325784 0)scale(0.996264)" xlink:href="#SFRM3583-63"/>
      <use transform="translate(425.944183 0)scale(0.996264)" xlink:href="#SFRM3583-74"/>
      <use transform="translate(460.602529 0)scale(0.996264)" xlink:href="#SFRM3583-75"/>
      <use transform="translate(510.140957 0)scale(0.996264)" xlink:href="#SFRM3583-61"/>
      <use transform="translate(554.719424 0)scale(0.996264)" xlink:href="#SFRM3583-6c"/>
     </g>
    </g>
    <g id="line2d_26">
     <path d="M 312.950982 293.147293 
L 332.950982 293.147293 
" style="fill:none;stroke:#d62728;stroke-linecap:square;stroke-width:1.5;"/>
    </g>
    <g id="line2d_27"/>
    <g id="text_20">
     <!-- No Habit -->
     <g transform="translate(340.950982 296.647293)scale(0.1 -0.1)">
      <defs>
       <path d="M 467 4365 
L 467 4224 
L 877 4192 
L 877 627 
C 877 423 864 141 467 141 
L 467 0 
L 1376 0 
L 1376 141 
C 998 141 966 404 966 627 
L 966 4135 
C 1069 4033 1126 3892 1197 3771 
C 1741 2844 2272 1898 2797 953 
L 3219 205 
C 3251 148 3309 0 3373 0 
C 3418 0 3418 39 3418 64 
L 3418 3751 
C 3418 3955 3450 4224 3827 4224 
L 3827 4365 
L 2918 4365 
L 2918 4224 
C 3270 4224 3328 3987 3328 3764 
L 3328 627 
L 1203 4352 
L 1126 4365 
L 467 4365 
z
" id="SFRM3583-4e" transform="scale(0.015625)"/>
      </defs>
      <use transform="scale(0.996264)" xlink:href="#SFRM3583-4e"/>
      <use transform="translate(66.840991 0)scale(0.996264)" xlink:href="#SFRM3583-6f"/>
      <use transform="translate(141.117751 0)scale(0.996264)" xlink:href="#SFRM3583-48"/>
      <use transform="translate(207.958741 0)scale(0.996264)" xlink:href="#SFRM3583-61"/>
      <use transform="translate(252.537208 0)scale(0.996264)" xlink:href="#SFRM3583-62"/>
      <use transform="translate(302.075636 0)scale(0.996264)" xlink:href="#SFRM3583-69"/>
      <use transform="translate(326.813968 0)scale(0.996264)" xlink:href="#SFRM3583-74"/>
     </g>
    </g>
   </g>
  </g>
 </g>
 <defs>
  <clipPath id="pf37e632abc">
   <rect height="266.112" width="357.12" x="57.6" y="41.472"/>
  </clipPath>
 </defs>
</svg>
