<?xml version="1.0" encoding="utf-8" standalone="no"?>
<!DOCTYPE svg PUBLIC "-//W3C//DTD SVG 1.1//EN"
  "http://www.w3.org/Graphics/SVG/1.1/DTD/svg11.dtd">
<svg height="576pt" version="1.1" viewBox="0 0 864 576" width="864pt" xmlns="http://www.w3.org/2000/svg" xmlns:xlink="http://www.w3.org/1999/xlink">
 <metadata>
  <rdf:RDF xmlns:cc="http://creativecommons.org/ns#" xmlns:dc="http://purl.org/dc/elements/1.1/" xmlns:rdf="http://www.w3.org/1999/02/22-rdf-syntax-ns#">
   <cc:Work>
    <dc:type rdf:resource="http://purl.org/dc/dcmitype/StillImage"/>
    <dc:date>2021-10-11T17:06:59.741711</dc:date>
    <dc:format>image/svg+xml</dc:format>
    <dc:creator>
     <cc:Agent>
      <dc:title>Matplotlib v3.4.2, https://matplotlib.org/</dc:title>
     </cc:Agent>
    </dc:creator>
   </cc:Work>
  </rdf:RDF>
 </metadata>
 <defs>
  <style type="text/css">*{stroke-linecap:butt;stroke-linejoin:round;}</style>
 </defs>
 <g id="figure_1">
  <g id="patch_1">
   <path d="M 0 576 
L 864 576 
L 864 0 
L 0 0 
z
" style="fill:none;"/>
  </g>
  <g id="axes_1">
   <g id="patch_2">
    <path d="M 108 504 
L 777.6 504 
L 777.6 69.12 
L 108 69.12 
z
" style="fill:#ffffff;"/>
   </g>
   <g id="patch_3">
    <path clip-path="url(#p573c0295c3)" d="M 195.885 238.7232 
L 198.396 234.3744 
L 198.396 238.50576 
L 229.365 238.50576 
L 229.365 238.94064 
L 198.396 238.94064 
L 198.396 243.072 
z
" style="stroke:#000000;stroke-linejoin:miter;"/>
   </g>
   <g id="patch_4">
    <path clip-path="url(#p573c0295c3)" d="M 308.88 477.9072 
L 306.330335 481.599068 
L 306.370043 477.472863 
L 292.13791 473.775569 
L 292.14209 473.341231 
L 306.374223 477.038525 
L 306.413931 472.91232 
z
" style="stroke:#000000;stroke-linejoin:miter;"/>
   </g>
   <g id="patch_5">
    <path clip-path="url(#p573c0295c3)" d="M 505.575 101.736 
L 508.18238 99.370622 
L 508.064427 103.456275 
L 522.321208 114.567366 
L 522.308792 114.997434 
L 508.052011 103.886343 
L 507.934058 107.971995 
z
" style="stroke:#000000;stroke-linejoin:miter;"/>
   </g>
   <g id="matplotlib.axis_1">
    <g id="xtick_1">
     <g id="line2d_1">
      <defs>
       <path d="M 0 0 
L 0 3.5 
" id="m74fba589a2" style="stroke:#000000;stroke-width:0.8;"/>
      </defs>
      <g>
       <use style="stroke:#000000;stroke-width:0.8;" x="108" xlink:href="#m74fba589a2" y="504"/>
      </g>
     </g>
     <g id="text_1">
      <!-- $\mathdefault{0}$ -->
      <g transform="translate(102.974048 526.093242)scale(0.22 -0.22)">
       <defs>
        <path d="M 2688 2025 
C 2688 2416 2682 3080 2413 3591 
C 2176 4039 1798 4198 1466 4198 
C 1158 4198 768 4058 525 3597 
C 269 3118 243 2524 243 2025 
C 243 1661 250 1106 448 619 
C 723 -39 1216 -128 1466 -128 
C 1760 -128 2208 -7 2470 600 
C 2662 1042 2688 1559 2688 2025 
z
M 1466 -26 
C 1056 -26 813 325 723 812 
C 653 1188 653 1738 653 2096 
C 653 2588 653 2997 736 3387 
C 858 3929 1216 4096 1466 4096 
C 1728 4096 2067 3923 2189 3400 
C 2272 3036 2278 2607 2278 2096 
C 2278 1680 2278 1169 2202 792 
C 2067 95 1690 -26 1466 -26 
z
" id="CMR17-30" transform="scale(0.015625)"/>
       </defs>
       <use transform="scale(0.996264)" xlink:href="#CMR17-30"/>
      </g>
     </g>
    </g>
    <g id="xtick_2">
     <g id="line2d_2">
      <g>
       <use style="stroke:#000000;stroke-width:0.8;" x="191.7" xlink:href="#m74fba589a2" y="504"/>
      </g>
     </g>
     <g id="text_2">
      <!-- $\mathdefault{1}$ -->
      <g transform="translate(186.674048 526.093242)scale(0.22 -0.22)">
       <defs>
        <path d="M 1702 4058 
C 1702 4192 1696 4192 1606 4192 
C 1357 3916 979 3827 621 3827 
C 602 3827 570 3827 563 3808 
C 557 3795 557 3782 557 3648 
C 755 3648 1088 3686 1344 3839 
L 1344 461 
C 1344 236 1331 160 781 160 
L 589 160 
L 589 0 
C 896 0 1216 0 1523 0 
C 1830 0 2150 0 2458 0 
L 2458 160 
L 2266 160 
C 1715 160 1702 230 1702 458 
L 1702 4058 
z
" id="CMR17-31" transform="scale(0.015625)"/>
       </defs>
       <use transform="scale(0.996264)" xlink:href="#CMR17-31"/>
      </g>
     </g>
    </g>
    <g id="xtick_3">
     <g id="line2d_3">
      <g>
       <use style="stroke:#000000;stroke-width:0.8;" x="275.4" xlink:href="#m74fba589a2" y="504"/>
      </g>
     </g>
     <g id="text_3">
      <!-- $\mathdefault{2}$ -->
      <g transform="translate(270.374048 526.093242)scale(0.22 -0.22)">
       <defs>
        <path d="M 2669 989 
L 2554 989 
C 2490 536 2438 459 2413 420 
C 2381 369 1920 369 1830 369 
L 602 369 
C 832 619 1280 1072 1824 1597 
C 2214 1967 2669 2402 2669 3035 
C 2669 3790 2067 4224 1395 4224 
C 691 4224 262 3604 262 3030 
C 262 2780 448 2748 525 2748 
C 589 2748 781 2787 781 3010 
C 781 3207 614 3264 525 3264 
C 486 3264 448 3258 422 3245 
C 544 3790 915 4058 1306 4058 
C 1862 4058 2227 3617 2227 3035 
C 2227 2479 1901 2000 1536 1584 
L 262 146 
L 262 0 
L 2515 0 
L 2669 989 
z
" id="CMR17-32" transform="scale(0.015625)"/>
       </defs>
       <use transform="scale(0.996264)" xlink:href="#CMR17-32"/>
      </g>
     </g>
    </g>
    <g id="xtick_4">
     <g id="line2d_4">
      <g>
       <use style="stroke:#000000;stroke-width:0.8;" x="359.1" xlink:href="#m74fba589a2" y="504"/>
      </g>
     </g>
     <g id="text_4">
      <!-- $\mathdefault{3}$ -->
      <g transform="translate(354.074048 526.093242)scale(0.22 -0.22)">
       <defs>
        <path d="M 1414 2157 
C 1984 2157 2234 1662 2234 1090 
C 2234 320 1824 25 1453 25 
C 1114 25 563 194 390 693 
C 422 680 454 680 486 680 
C 640 680 755 782 755 948 
C 755 1133 614 1216 486 1216 
C 378 1216 211 1165 211 926 
C 211 335 787 -128 1466 -128 
C 2176 -128 2720 430 2720 1085 
C 2720 1707 2208 2157 1600 2227 
C 2086 2328 2554 2756 2554 3329 
C 2554 3820 2048 4179 1472 4179 
C 890 4179 378 3829 378 3329 
C 378 3110 544 3072 627 3072 
C 762 3072 877 3155 877 3321 
C 877 3486 762 3569 627 3569 
C 602 3569 570 3569 544 3557 
C 730 3959 1235 4032 1459 4032 
C 1683 4032 2106 3925 2106 3320 
C 2106 3143 2080 2828 1862 2550 
C 1670 2304 1453 2304 1242 2284 
C 1210 2284 1062 2269 1037 2269 
C 992 2263 966 2257 966 2208 
C 966 2163 973 2157 1101 2157 
L 1414 2157 
z
" id="CMR17-33" transform="scale(0.015625)"/>
       </defs>
       <use transform="scale(0.996264)" xlink:href="#CMR17-33"/>
      </g>
     </g>
    </g>
    <g id="xtick_5">
     <g id="line2d_5">
      <g>
       <use style="stroke:#000000;stroke-width:0.8;" x="442.8" xlink:href="#m74fba589a2" y="504"/>
      </g>
     </g>
     <g id="text_5">
      <!-- $\mathdefault{4}$ -->
      <g transform="translate(437.774048 526.093242)scale(0.22 -0.22)">
       <defs>
        <path d="M 2150 4122 
C 2150 4256 2144 4256 2029 4256 
L 128 1254 
L 128 1088 
L 1779 1088 
L 1779 457 
C 1779 224 1766 160 1318 160 
L 1197 160 
L 1197 0 
C 1402 0 1747 0 1965 0 
C 2182 0 2528 0 2733 0 
L 2733 160 
L 2611 160 
C 2163 160 2150 224 2150 457 
L 2150 1088 
L 2803 1088 
L 2803 1254 
L 2150 1254 
L 2150 4122 
z
M 1798 3703 
L 1798 1254 
L 256 1254 
L 1798 3703 
z
" id="CMR17-34" transform="scale(0.015625)"/>
       </defs>
       <use transform="scale(0.996264)" xlink:href="#CMR17-34"/>
      </g>
     </g>
    </g>
    <g id="xtick_6">
     <g id="line2d_6">
      <g>
       <use style="stroke:#000000;stroke-width:0.8;" x="526.5" xlink:href="#m74fba589a2" y="504"/>
      </g>
     </g>
     <g id="text_6">
      <!-- $\mathdefault{5}$ -->
      <g transform="translate(521.474048 526.093242)scale(0.22 -0.22)">
       <defs>
        <path d="M 730 3692 
C 794 3666 1056 3584 1325 3584 
C 1920 3584 2246 3911 2432 4100 
C 2432 4157 2432 4192 2394 4192 
C 2387 4192 2374 4192 2323 4163 
C 2099 4058 1837 3973 1517 3973 
C 1325 3973 1037 3999 723 4139 
C 653 4171 640 4171 634 4171 
C 602 4171 595 4164 595 4037 
L 595 2203 
C 595 2089 595 2057 659 2057 
C 691 2057 704 2070 736 2114 
C 941 2401 1222 2522 1542 2522 
C 1766 2522 2246 2382 2246 1289 
C 2246 1085 2246 715 2054 421 
C 1894 159 1645 25 1370 25 
C 947 25 518 320 403 814 
C 429 807 480 795 506 795 
C 589 795 749 840 749 1038 
C 749 1210 627 1280 506 1280 
C 358 1280 262 1190 262 1011 
C 262 454 704 -128 1382 -128 
C 2042 -128 2669 440 2669 1264 
C 2669 2030 2170 2624 1549 2624 
C 1222 2624 947 2503 730 2274 
L 730 3692 
z
" id="CMR17-35" transform="scale(0.015625)"/>
       </defs>
       <use transform="scale(0.996264)" xlink:href="#CMR17-35"/>
      </g>
     </g>
    </g>
    <g id="xtick_7">
     <g id="line2d_7">
      <g>
       <use style="stroke:#000000;stroke-width:0.8;" x="610.2" xlink:href="#m74fba589a2" y="504"/>
      </g>
     </g>
     <g id="text_7">
      <!-- $\mathdefault{6}$ -->
      <g transform="translate(605.174048 526.093242)scale(0.22 -0.22)">
       <defs>
        <path d="M 678 2176 
C 678 3690 1395 4032 1811 4032 
C 1946 4032 2272 4009 2400 3776 
C 2298 3776 2106 3776 2106 3553 
C 2106 3381 2246 3323 2336 3323 
C 2394 3323 2566 3348 2566 3560 
C 2566 3954 2246 4179 1805 4179 
C 1043 4179 243 3390 243 1984 
C 243 253 966 -128 1478 -128 
C 2099 -128 2688 427 2688 1283 
C 2688 2081 2170 2662 1517 2662 
C 1126 2662 838 2407 678 1960 
L 678 2176 
z
M 1478 25 
C 691 25 691 1200 691 1436 
C 691 1896 909 2560 1504 2560 
C 1613 2560 1926 2560 2138 2120 
C 2253 1870 2253 1609 2253 1289 
C 2253 944 2253 690 2118 434 
C 1978 171 1773 25 1478 25 
z
" id="CMR17-36" transform="scale(0.015625)"/>
       </defs>
       <use transform="scale(0.996264)" xlink:href="#CMR17-36"/>
      </g>
     </g>
    </g>
    <g id="xtick_8">
     <g id="line2d_8">
      <g>
       <use style="stroke:#000000;stroke-width:0.8;" x="693.9" xlink:href="#m74fba589a2" y="504"/>
      </g>
     </g>
     <g id="text_8">
      <!-- $\mathdefault{7}$ -->
      <g transform="translate(688.874048 526.093242)scale(0.22 -0.22)">
       <defs>
        <path d="M 2886 3941 
L 2886 4081 
L 1382 4081 
C 634 4081 621 4165 595 4288 
L 480 4288 
L 294 3094 
L 410 3094 
C 429 3215 474 3540 550 3661 
C 589 3712 1062 3712 1171 3712 
L 2579 3712 
L 1869 2661 
C 1395 1954 1069 999 1069 165 
C 1069 89 1069 -128 1299 -128 
C 1530 -128 1530 89 1530 171 
L 1530 465 
C 1530 1508 1709 2196 2003 2636 
L 2886 3941 
z
" id="CMR17-37" transform="scale(0.015625)"/>
       </defs>
       <use transform="scale(0.996264)" xlink:href="#CMR17-37"/>
      </g>
     </g>
    </g>
    <g id="xtick_9">
     <g id="line2d_9">
      <g>
       <use style="stroke:#000000;stroke-width:0.8;" x="777.6" xlink:href="#m74fba589a2" y="504"/>
      </g>
     </g>
     <g id="text_9">
      <!-- $\mathdefault{8}$ -->
      <g transform="translate(772.574048 526.093242)scale(0.22 -0.22)">
       <defs>
        <path d="M 1741 2264 
C 2144 2467 2554 2773 2554 3263 
C 2554 3841 1990 4179 1472 4179 
C 890 4179 378 3759 378 3180 
C 378 3021 416 2747 666 2505 
C 730 2442 998 2251 1171 2130 
C 883 1983 211 1634 211 934 
C 211 279 838 -128 1459 -128 
C 2144 -128 2720 362 2720 1010 
C 2720 1590 2330 1857 2074 2029 
L 1741 2264 
z
M 902 2822 
C 851 2854 595 3051 595 3351 
C 595 3739 998 4032 1459 4032 
C 1965 4032 2336 3676 2336 3262 
C 2336 2669 1670 2331 1638 2331 
C 1632 2331 1626 2331 1574 2370 
L 902 2822 
z
M 2080 1519 
C 2176 1449 2483 1240 2483 851 
C 2483 381 2010 25 1472 25 
C 890 25 448 438 448 940 
C 448 1443 838 1862 1280 2060 
L 2080 1519 
z
" id="CMR17-38" transform="scale(0.015625)"/>
       </defs>
       <use transform="scale(0.996264)" xlink:href="#CMR17-38"/>
      </g>
     </g>
    </g>
   </g>
   <g id="matplotlib.axis_2">
    <g id="ytick_1">
     <g id="line2d_10">
      <defs>
       <path d="M 0 0 
L -3.5 0 
" id="me7b1e57f50" style="stroke:#000000;stroke-width:0.8;"/>
      </defs>
      <g>
       <use style="stroke:#000000;stroke-width:0.8;" x="108" xlink:href="#me7b1e57f50" y="504"/>
      </g>
     </g>
     <g id="text_10">
      <!-- $\mathdefault{0.0}$ -->
      <g transform="translate(74.934811 511.546621)scale(0.22 -0.22)">
       <defs>
        <path d="M 1178 307 
C 1178 492 1024 619 870 619 
C 685 619 557 466 557 313 
C 557 128 710 0 864 0 
C 1050 0 1178 153 1178 307 
z
" id="CMMI12-3a" transform="scale(0.015625)"/>
       </defs>
       <use transform="scale(0.996264)" xlink:href="#CMR17-30"/>
       <use transform="translate(45.690477 0)scale(0.996264)" xlink:href="#CMMI12-3a"/>
       <use transform="translate(72.787654 0)scale(0.996264)" xlink:href="#CMR17-30"/>
      </g>
     </g>
    </g>
    <g id="ytick_2">
     <g id="line2d_11">
      <g>
       <use style="stroke:#000000;stroke-width:0.8;" x="108" xlink:href="#me7b1e57f50" y="417.024"/>
      </g>
     </g>
     <g id="text_11">
      <!-- $\mathdefault{0.2}$ -->
      <g transform="translate(74.934811 424.570621)scale(0.22 -0.22)">
       <use transform="scale(0.996264)" xlink:href="#CMR17-30"/>
       <use transform="translate(45.690477 0)scale(0.996264)" xlink:href="#CMMI12-3a"/>
       <use transform="translate(72.787654 0)scale(0.996264)" xlink:href="#CMR17-32"/>
      </g>
     </g>
    </g>
    <g id="ytick_3">
     <g id="line2d_12">
      <g>
       <use style="stroke:#000000;stroke-width:0.8;" x="108" xlink:href="#me7b1e57f50" y="330.048"/>
      </g>
     </g>
     <g id="text_12">
      <!-- $\mathdefault{0.4}$ -->
      <g transform="translate(74.934811 337.594621)scale(0.22 -0.22)">
       <use transform="scale(0.996264)" xlink:href="#CMR17-30"/>
       <use transform="translate(45.690477 0)scale(0.996264)" xlink:href="#CMMI12-3a"/>
       <use transform="translate(72.787654 0)scale(0.996264)" xlink:href="#CMR17-34"/>
      </g>
     </g>
    </g>
    <g id="ytick_4">
     <g id="line2d_13">
      <g>
       <use style="stroke:#000000;stroke-width:0.8;" x="108" xlink:href="#me7b1e57f50" y="243.072"/>
      </g>
     </g>
     <g id="text_13">
      <!-- $\mathdefault{0.6}$ -->
      <g transform="translate(74.934811 250.618621)scale(0.22 -0.22)">
       <use transform="scale(0.996264)" xlink:href="#CMR17-30"/>
       <use transform="translate(45.690477 0)scale(0.996264)" xlink:href="#CMMI12-3a"/>
       <use transform="translate(72.787654 0)scale(0.996264)" xlink:href="#CMR17-36"/>
      </g>
     </g>
    </g>
    <g id="ytick_5">
     <g id="line2d_14">
      <g>
       <use style="stroke:#000000;stroke-width:0.8;" x="108" xlink:href="#me7b1e57f50" y="156.096"/>
      </g>
     </g>
     <g id="text_14">
      <!-- $\mathdefault{0.8}$ -->
      <g transform="translate(74.934811 163.642621)scale(0.22 -0.22)">
       <use transform="scale(0.996264)" xlink:href="#CMR17-30"/>
       <use transform="translate(45.690477 0)scale(0.996264)" xlink:href="#CMMI12-3a"/>
       <use transform="translate(72.787654 0)scale(0.996264)" xlink:href="#CMR17-38"/>
      </g>
     </g>
    </g>
    <g id="ytick_6">
     <g id="line2d_15">
      <g>
       <use style="stroke:#000000;stroke-width:0.8;" x="108" xlink:href="#me7b1e57f50" y="69.12"/>
      </g>
     </g>
     <g id="text_15">
      <!-- $\mathdefault{1.0}$ -->
      <g transform="translate(74.934811 76.666621)scale(0.22 -0.22)">
       <use transform="scale(0.996264)" xlink:href="#CMR17-31"/>
       <use transform="translate(45.690477 0)scale(0.996264)" xlink:href="#CMMI12-3a"/>
       <use transform="translate(72.787654 0)scale(0.996264)" xlink:href="#CMR17-30"/>
      </g>
     </g>
    </g>
   </g>
   <g id="line2d_16">
    <path clip-path="url(#p573c0295c3)" d="M 108.0837 98.668023 
L 112.104819 98.778199 
L 114.115378 98.939406 
L 115.455751 99.046636 
L 116.125938 99.171734 
L 116.796124 99.171734 
L 117.466311 99.314796 
L 118.136497 99.314796 
L 119.47687 99.655236 
L 120.147057 99.655236 
L 120.817243 99.852835 
L 121.48743 99.852835 
L 122.827803 100.303529 
L 123.497989 100.303529 
L 124.168176 100.556933 
L 124.838362 100.556933 
L 126.178735 101.120556 
L 126.848922 101.120556 
L 128.189295 101.760135 
L 128.859481 101.760135 
L 129.529668 102.108732 
L 130.199854 102.108732 
L 131.540227 102.864592 
L 132.210414 102.864592 
L 133.550786 103.699679 
L 134.220973 103.699679 
L 135.561346 104.615637 
L 136.231532 104.615637 
L 137.571905 105.613328 
L 138.242092 105.613328 
L 139.582465 106.694219 
L 140.252651 106.694219 
L 142.263211 108.473137 
L 142.933397 108.473137 
L 144.27377 109.765669 
L 144.943957 109.765669 
L 147.624703 112.61103 
L 148.294889 112.61103 
L 150.975635 115.809588 
L 151.645822 115.809588 
L 154.326568 119.363647 
L 157.007314 123.274405 
L 157.6775 124.308364 
L 158.347686 124.308364 
L 161.028432 128.66082 
L 161.698619 130.967548 
L 165.049551 137.101748 
L 166.389924 139.700152 
L 167.060111 142.375184 
L 169.07067 146.531697 
L 169.740857 149.392106 
L 171.08123 152.32208 
L 171.751416 155.316545 
L 172.421603 156.838141 
L 173.091789 159.926696 
L 173.761976 161.495772 
L 174.432162 164.664417 
L 175.102349 166.271974 
L 175.772535 169.516182 
L 176.442722 171.159922 
L 177.783095 177.823972 
L 178.453281 179.512129 
L 181.134027 193.278857 
L 181.804214 195.026195 
L 183.814773 205.541567 
L 184.484959 210.810962 
L 187.835892 228.246468 
L 188.506078 233.397824 
L 189.176265 236.794972 
L 189.846451 241.86425 
L 191.186824 248.491341 
L 191.857011 253.379594 
L 192.527197 256.590798 
L 193.86757 265.990019 
L 194.537757 269.056022 
L 195.87813 277.946091 
L 196.548316 280.835926 
L 199.229062 297.172142 
L 199.899249 299.745824 
L 202.579995 314.213965 
L 205.260741 327.192654 
L 207.2713 336.025026 
L 209.281859 344.15477 
L 209.952046 345.863616 
L 212.632792 355.511066 
L 215.313538 364.200576 
L 217.994284 372.019231 
L 218.66447 373.240089 
L 221.345216 380.202379 
L 222.015403 381.84511 
L 222.685589 382.908073 
L 224.696149 387.520347 
L 225.366335 388.508222 
L 226.706708 391.370113 
L 227.376895 392.298265 
L 228.717268 394.998796 
L 229.387454 395.869624 
L 230.727827 398.425441 
L 231.398014 399.243577 
L 232.0682 400.469546 
L 232.738386 401.264479 
L 233.408573 402.444715 
L 234.078759 403.214248 
L 234.748946 404.351478 
L 235.419132 405.096194 
L 236.089319 406.203956 
L 236.759505 406.926391 
L 237.429692 407.993996 
L 238.770065 409.383652 
L 239.440251 410.404221 
L 240.780624 411.742303 
L 241.450811 412.724022 
L 242.791184 414.003164 
L 243.46137 414.945285 
L 245.47193 416.77373 
L 246.142116 417.669918 
L 249.493049 420.541063 
L 250.163235 421.372416 
L 254.854541 425.097794 
L 260.216032 429.057844 
L 262.226592 430.472805 
L 262.896778 430.704495 
L 266.247711 432.974436 
L 266.917897 433.197433 
L 268.928457 434.509639 
L 269.598643 434.725141 
L 271.609203 436.00559 
L 272.279389 436.215637 
L 273.619762 437.048913 
L 274.289949 437.256912 
L 275.630322 438.073304 
L 276.300508 438.275772 
L 276.970695 438.678632 
L 277.640881 438.880367 
L 278.981254 439.67339 
L 279.651441 439.869687 
L 280.321627 440.259621 
L 280.991814 440.45446 
L 281.662 440.842719 
L 282.332186 441.034333 
L 283.672559 441.79439 
L 284.342746 441.982079 
L 285.012932 442.355632 
L 285.683119 442.54173 
L 286.353305 442.913111 
L 287.023492 443.096811 
L 287.693678 443.460546 
L 289.034051 443.822326 
L 289.704238 444.181903 
L 290.374424 444.360731 
L 291.044611 444.714558 
L 291.714797 444.890607 
L 292.384984 445.239655 
L 293.725357 445.586368 
L 294.395543 445.929755 
L 295.735916 446.270779 
L 296.406103 446.607438 
L 297.076289 446.77525 
L 297.746476 447.107966 
L 299.086849 447.438747 
L 299.757035 447.765086 
L 301.767595 448.24876 
L 302.437781 448.567975 
L 303.778154 448.884219 
L 304.448341 449.196499 
L 306.4589 449.660545 
L 307.129086 449.966037 
L 309.809832 450.568345 
L 310.480019 450.864916 
L 313.160765 451.44976 
L 313.830951 451.737593 
L 317.181884 452.446474 
L 317.85207 452.725602 
L 336.617292 456.480467 
L 344.65953 457.892229 
L 345.329716 457.892229 
L 351.361395 458.902617 
L 352.701768 459.012795 
L 356.722886 459.662163 
L 358.063259 459.768949 
L 362.754565 460.399144 
L 366.775684 460.912372 
L 370.796803 461.415851 
L 372.137176 461.515267 
L 376.828481 462.103315 
L 378.168854 462.2001 
L 381.519786 462.58272 
L 382.860159 462.677762 
L 386.211092 463.052816 
L 387.551465 463.145779 
L 390.902397 463.513952 
L 392.24277 463.605458 
L 394.923516 463.877155 
L 396.263889 463.966716 
L 398.944635 464.233568 
L 400.285008 464.322378 
L 402.965754 464.585963 
L 404.306127 464.673003 
L 406.316686 464.846375 
L 407.657059 464.932715 
L 410.337805 465.188948 
L 412.348365 465.273791 
L 415.029111 465.526908 
L 416.369484 465.611201 
L 418.380043 465.777698 
L 419.720416 465.860486 
L 421.730976 466.024982 
L 423.741535 466.106679 
L 426.422281 466.351094 
L 428.432841 466.431615 
L 431.113586 466.672128 
L 433.124146 466.751667 
L 435.134705 466.910361 
L 436.475078 466.989129 
L 438.485638 467.145724 
L 440.496197 467.223543 
L 442.506757 467.378414 
L 444.517316 467.45567 
L 446.527876 467.609958 
L 448.538435 467.686233 
L 450.548995 467.838234 
L 452.559554 467.913597 
L 454.570114 468.063987 
L 456.580673 468.13897 
L 458.591232 468.287771 
L 460.601792 468.361679 
L 462.612351 468.509402 
L 464.622911 468.582786 
L 466.63347 468.728643 
L 469.314216 468.801242 
L 471.324776 468.945434 
L 473.335335 469.017388 
L 475.345895 469.160642 
L 478.026641 469.231905 
L 480.0372 469.373295 
L 482.717946 469.443701 
L 484.728505 469.584263 
L 487.409251 469.654029 
L 489.419811 469.792969 
L 492.100557 469.862306 
L 494.111116 469.999672 
L 496.791862 470.068188 
L 498.802422 470.20453 
L 501.483168 470.272406 
L 502.823541 470.340018 
L 504.8341 470.407333 
L 506.174473 470.474424 
L 508.185032 470.541394 
L 509.525405 470.608012 
L 511.535965 470.674546 
L 512.876338 470.740669 
L 515.557084 470.806763 
L 517.567643 470.938381 
L 520.918576 471.004025 
L 522.929135 471.134568 
L 526.280068 471.199581 
L 528.290627 471.328523 
L 531.641559 471.392642 
L 532.981932 471.456923 
L 535.662678 471.520871 
L 537.003051 471.584359 
L 539.013611 471.647735 
L 540.353984 471.710866 
L 543.03473 471.773854 
L 544.375103 471.836921 
L 547.055849 471.899873 
L 548.396222 471.962415 
L 551.076968 472.024892 
L 552.417341 472.087106 
L 555.098086 472.148992 
L 556.438459 472.210773 
L 559.119205 472.272107 
L 560.459578 472.333305 
L 563.140324 472.394356 
L 564.480697 472.45526 
L 567.83163 472.516081 
L 569.172003 472.577035 
L 571.852749 472.637632 
L 573.193122 472.698101 
L 576.544054 472.758088 
L 577.884427 472.817975 
L 580.565173 472.877573 
L 581.905546 472.93704 
L 585.256478 472.996312 
L 586.596851 473.055427 
L 589.947784 473.114589 
L 591.288157 473.173547 
L 593.968903 473.232328 
L 595.309276 473.290819 
L 598.660208 473.349099 
L 600.000581 473.407121 
L 603.351514 473.465063 
L 604.691886 473.522768 
L 608.713005 473.58037 
L 610.053378 473.637776 
L 613.404311 473.695377 
L 614.744684 473.752555 
L 618.095616 473.809453 
L 619.435989 473.866171 
L 623.457108 473.9227 
L 624.797481 473.979233 
L 628.8186 474.035533 
L 630.158973 474.091565 
L 633.509905 474.147616 
L 634.850278 474.203421 
L 641.552143 474.31431 
L 643.562703 474.369664 
L 649.594381 474.479817 
L 651.604941 474.534634 
L 658.306805 474.643747 
L 660.317365 474.698106 
L 666.349043 474.806286 
L 668.359603 474.860155 
L 675.061468 474.967446 
L 677.072027 475.020965 
L 684.444078 475.127208 
L 686.454638 475.18009 
L 693.156503 475.285596 
L 695.167062 475.337978 
L 702.539114 475.442648 
L 704.549673 475.494596 
L 712.591911 475.5981 
L 714.60247 475.649662 
L 721.974522 475.752176 
L 723.985081 475.803329 
L 732.027319 475.905103 
L 734.037878 475.95569 
L 742.750303 476.057044 
L 744.760862 476.107394 
L 753.473286 476.207472 
L 755.483846 476.257292 
L 764.19627 476.35627 
L 766.20683 476.405567 
L 774.919254 476.50378 
L 776.929814 476.552695 
L 777.6 476.552695 
L 777.6 476.552695 
" style="fill:none;stroke:#000000;stroke-linecap:square;stroke-width:1.5;"/>
   </g>
   <g id="line2d_17">
    <path clip-path="url(#p573c0295c3)" d="M 108 98.817756 
L 777.6 98.817756 
" style="fill:none;stroke:#000000;stroke-linecap:square;stroke-width:1.5;"/>
   </g>
   <g id="line2d_18">
    <path clip-path="url(#p573c0295c3)" d="M 108 489.109693 
L 777.6 489.109693 
" style="fill:none;stroke:#000000;stroke-linecap:square;stroke-width:1.5;"/>
   </g>
   <g id="patch_6">
    <path d="M 108 504 
L 108 69.12 
" style="fill:none;stroke:#000000;stroke-linecap:square;stroke-linejoin:miter;stroke-width:0.8;"/>
   </g>
   <g id="patch_7">
    <path d="M 777.6 504 
L 777.6 69.12 
" style="fill:none;stroke:#000000;stroke-linecap:square;stroke-linejoin:miter;stroke-width:0.8;"/>
   </g>
   <g id="patch_8">
    <path d="M 108 504 
L 777.6 504 
" style="fill:none;stroke:#000000;stroke-linecap:square;stroke-linejoin:miter;stroke-width:0.8;"/>
   </g>
   <g id="patch_9">
    <path d="M 108 69.12 
L 777.6 69.12 
" style="fill:none;stroke:#000000;stroke-linecap:square;stroke-linejoin:miter;stroke-width:0.8;"/>
   </g>
   <g id="text_16">
    <!-- $\MPC(m) \equiv c^{\prime}(m)$ -->
    <g transform="translate(233.55 243.072)scale(0.26 -0.26)">
     <defs>
      <path d="M 1363 1600 
C 1574 1714 1811 1912 1971 2046 
C 2355 2377 2496 2479 2739 2574 
C 2714 2536 2707 2485 2707 2441 
C 2707 2268 2854 2236 2918 2236 
C 3123 2236 3238 2427 3238 2548 
C 3238 2586 3226 2752 3002 2752 
C 2618 2752 2240 2431 1958 2198 
C 1587 1876 1402 1738 1139 1656 
L 1382 2656 
C 1382 2759 1299 2816 1216 2816 
C 1158 2816 1018 2797 966 2592 
L 371 224 
C 352 148 352 134 352 96 
C 352 6 422 -64 518 -64 
C 710 -64 749 106 781 244 
C 819 380 1082 1472 1094 1472 
C 1907 1472 2182 1264 2182 943 
C 2182 897 2182 878 2163 806 
C 2138 682 2138 609 2138 570 
C 2138 178 2387 -64 2701 -64 
C 2963 -64 3110 123 3206 291 
C 3341 543 3424 898 3424 923 
C 3424 956 3398 981 3360 981 
C 3302 981 3296 956 3270 852 
C 3187 542 3046 64 2720 64 
C 2579 64 2509 148 2509 374 
C 2509 498 2534 641 2560 737 
C 2573 802 2592 880 2592 951 
C 2592 1541 1786 1600 1363 1600 
z
" id="CMMI12-14" transform="scale(0.015625)"/>
      <path d="M 1958 -1561 
C 1958 -1555 1958 -1542 1939 -1523 
C 1645 -1224 858 -407 858 1581 
C 858 3569 1632 4379 1946 4697 
C 1946 4704 1958 4717 1958 4736 
C 1958 4755 1939 4768 1914 4768 
C 1843 4768 1299 4296 986 3594 
C 666 2887 576 2199 576 1588 
C 576 1128 621 351 1005 -471 
C 1312 -1135 1837 -1600 1914 -1600 
C 1946 -1600 1958 -1587 1958 -1561 
z
" id="CMR17-28" transform="scale(0.015625)"/>
      <path d="M 1318 1871 
C 1331 1910 1491 2229 1728 2433 
C 1894 2586 2112 2689 2362 2689 
C 2618 2689 2707 2497 2707 2242 
C 2707 2203 2707 2076 2630 1775 
L 2470 1118 
C 2419 926 2298 453 2285 383 
C 2259 287 2221 121 2221 96 
C 2221 6 2291 -64 2387 -64 
C 2579 -64 2611 83 2669 313 
L 3053 1839 
C 3066 1890 3398 2689 4102 2689 
C 4358 2689 4448 2497 4448 2242 
C 4448 1884 4198 1188 4058 805 
C 4000 651 3968 568 3968 453 
C 3968 166 4166 -64 4474 -64 
C 5069 -64 5293 875 5293 913 
C 5293 945 5267 971 5229 971 
C 5171 971 5165 952 5133 843 
C 4986 332 4749 64 4493 64 
C 4429 64 4326 64 4326 269 
C 4326 436 4403 640 4429 710 
C 4544 1018 4832 1773 4832 2145 
C 4832 2528 4608 2816 4122 2816 
C 3693 2816 3347 2574 3091 2197 
C 3072 2542 2861 2816 2381 2816 
C 1811 2816 1510 2415 1395 2255 
C 1376 2618 1114 2816 832 2816 
C 646 2816 499 2727 378 2484 
C 262 2254 173 1865 173 1839 
C 173 1814 198 1782 243 1782 
C 294 1782 301 1788 339 1935 
C 435 2312 557 2689 813 2689 
C 960 2689 1011 2586 1011 2395 
C 1011 2254 947 2005 902 1807 
L 723 1118 
C 698 996 627 709 595 594 
C 550 428 480 128 480 96 
C 480 6 550 -64 646 -64 
C 723 -64 813 -26 864 70 
C 877 102 934 326 966 453 
L 1107 1028 
L 1318 1871 
z
" id="CMMI12-6d" transform="scale(0.015625)"/>
      <path d="M 1683 1581 
C 1683 2040 1638 2817 1254 3639 
C 947 4303 422 4768 346 4768 
C 326 4768 301 4761 301 4729 
C 301 4717 307 4710 314 4697 
C 621 4378 1402 3568 1402 1584 
C 1402 -407 627 -1217 314 -1537 
C 307 -1549 301 -1556 301 -1568 
C 301 -1600 326 -1600 346 -1600 
C 416 -1600 960 -1128 1274 -426 
C 1594 281 1683 969 1683 1581 
z
" id="CMR17-29" transform="scale(0.015625)"/>
      <path d="M 4390 2700 
C 4499 2700 4621 2700 4621 2828 
C 4621 2956 4506 2956 4397 2956 
L 576 2956 
C 467 2956 352 2956 352 2828 
C 352 2700 480 2700 582 2700 
L 4390 2700 
z
M 4397 244 
C 4506 244 4621 244 4621 372 
C 4621 500 4499 500 4390 500 
L 582 500 
C 480 500 352 500 352 372 
C 352 244 467 244 576 244 
L 4397 244 
z
M 4397 1472 
C 4506 1472 4621 1472 4621 1600 
C 4621 1728 4506 1728 4397 1728 
L 576 1728 
C 467 1728 352 1728 352 1600 
C 352 1472 467 1472 576 1472 
L 4397 1472 
z
" id="CMSY10-11" transform="scale(0.015625)"/>
      <path d="M 2502 2431 
C 2381 2431 2323 2431 2234 2355 
C 2195 2323 2125 2227 2125 2125 
C 2125 1997 2221 1920 2342 1920 
C 2496 1920 2669 2044 2669 2292 
C 2669 2588 2374 2816 1933 2816 
C 1094 2816 256 1903 256 996 
C 256 441 602 -64 1254 -64 
C 2125 -64 2675 622 2675 706 
C 2675 744 2637 776 2611 776 
C 2592 776 2586 770 2528 713 
C 2118 162 1510 64 1267 64 
C 826 64 685 446 685 764 
C 685 988 794 1605 1024 2039 
C 1190 2338 1536 2682 1939 2682 
C 2022 2682 2374 2682 2502 2431 
z
" id="CMMI12-63" transform="scale(0.015625)"/>
      <path d="M 1619 3040 
C 1651 3117 1677 3174 1677 3238 
C 1677 3424 1510 3578 1312 3578 
C 1133 3578 1018 3456 973 3290 
L 211 493 
C 211 480 186 410 186 403 
C 186 333 352 288 403 288 
C 442 288 448 307 486 390 
L 1619 3040 
z
" id="CMSY10-30" transform="scale(0.015625)"/>
     </defs>
     <use transform="scale(0.996264)" xlink:href="#CMMI12-14"/>
     <use transform="translate(56.154624 0)scale(0.996264)" xlink:href="#CMR17-28"/>
     <use transform="translate(91.435392 0)scale(0.996264)" xlink:href="#CMMI12-6d"/>
     <use transform="translate(176.762616 0)scale(0.996264)" xlink:href="#CMR17-29"/>
     <use transform="translate(239.717393 0)scale(0.996264)" xlink:href="#CMSY10-11"/>
     <use transform="translate(344.878869 0)scale(0.996264)" xlink:href="#CMMI12-63"/>
     <use transform="translate(386.862103 36.153639)scale(0.697382)" xlink:href="#CMSY10-30"/>
     <use transform="translate(406.538195 0)scale(0.996264)" xlink:href="#CMR17-28"/>
     <use transform="translate(441.818963 0)scale(0.996264)" xlink:href="#CMMI12-6d"/>
     <use transform="translate(527.146188 0)scale(0.996264)" xlink:href="#CMR17-29"/>
    </g>
   </g>
   <g id="text_17">
    <!-- $(1-\UnempPrb^{1/\CRRA}\pmb{\text{\TH}})\equiv \overline{\MPC}$ -->
    <g transform="translate(526.5 125.6544)scale(0.26 -0.26)">
     <defs>
      <path d="M 4218 1472 
C 4326 1472 4442 1472 4442 1600 
C 4442 1728 4326 1728 4218 1728 
L 755 1728 
C 646 1728 531 1728 531 1600 
C 531 1472 646 1472 755 1472 
L 4218 1472 
z
" id="CMSY10-0" transform="scale(0.015625)"/>
      <path d="M 1050 768 
C 1446 1680 2195 2490 3046 2490 
C 3366 2490 3507 2221 3507 1869 
C 3507 1594 3379 998 3174 627 
C 3014 339 2733 64 2432 64 
C 2304 64 2010 122 2010 473 
C 2099 492 2138 556 2138 614 
C 2138 685 2086 723 2029 723 
C 1869 723 1869 525 1869 461 
C 1869 109 2144 -64 2432 -64 
C 3136 -64 3872 800 3872 1670 
C 3872 2150 3603 2618 3059 2618 
C 2669 2618 2234 2470 1786 2054 
C 1542 1837 1274 1523 954 902 
C 800 1075 800 1280 800 1370 
C 800 1850 1107 2672 1549 2757 
C 1587 2763 1626 2769 1626 2830 
C 1626 2836 1626 2879 1555 2879 
C 1101 2879 525 2001 525 1186 
C 525 856 595 760 794 499 
C 570 -146 480 -694 480 -893 
C 480 -1158 582 -1390 883 -1390 
C 1306 -1390 1715 -838 1715 -343 
C 1715 -111 1658 -35 1440 261 
C 1350 370 1133 652 1050 768 
z
M 890 351 
L 1357 -257 
C 1427 -360 1434 -436 1434 -526 
C 1434 -897 1152 -1262 883 -1262 
C 704 -1262 621 -1134 621 -891 
C 621 -596 800 95 890 351 
z
" id="CMMI12-7d" transform="scale(0.015625)"/>
      <path d="M 2746 4562 
C 2746 4569 2784 4666 2784 4678 
C 2784 4755 2720 4800 2669 4800 
C 2637 4800 2579 4800 2528 4659 
L 384 -1363 
C 384 -1370 346 -1465 346 -1478 
C 346 -1555 410 -1600 461 -1600 
C 499 -1600 557 -1593 602 -1459 
L 2746 4562 
z
" id="CMMI12-3d" transform="scale(0.015625)"/>
      <path d="M 198 -1107 
C 192 -1139 179 -1177 179 -1216 
C 179 -1312 256 -1376 352 -1376 
C 448 -1376 538 -1312 576 -1222 
C 602 -1164 781 -397 986 390 
C 1114 70 1350 -64 1600 -64 
C 2323 -64 3142 830 3142 1795 
C 3142 2478 2726 2816 2285 2816 
C 1722 2816 1037 2235 826 1385 
L 198 -1107 
z
M 1594 64 
C 1158 64 1050 569 1050 645 
C 1050 684 1210 1295 1229 1391 
C 1555 2670 2182 2670 2278 2670 
C 2566 2670 2726 2410 2726 2036 
C 2726 1712 2554 1084 2445 819 
C 2253 381 1920 64 1594 64 
z
" id="CMMI12-1a" transform="scale(0.015625)"/>
      <path d="M 474 4365 
L 474 4224 
L 582 4224 
C 749 4224 883 4205 883 3955 
L 883 410 
C 883 160 774 141 474 141 
L 474 0 
L 1594 0 
L 1594 141 
L 1466 141 
C 1318 141 1184 160 1184 365 
L 1184 1140 
L 2176 1140 
C 2797 1197 3251 1723 3251 2327 
C 3251 2872 2861 3411 2266 3501 
C 2163 3520 2061 3520 1958 3520 
L 1184 3520 
L 1184 3973 
C 1184 4148 1210 4224 1594 4224 
L 1594 4365 
L 474 4365 
z
M 1184 1280 
L 1184 3379 
L 1786 3379 
C 2093 3379 2394 3354 2624 3077 
C 2803 2873 2899 2596 2899 2327 
C 2899 1871 2586 1351 2003 1280 
L 1184 1280 
z
" id="SFRM3583-de" transform="scale(0.015625)"/>
     </defs>
     <use transform="scale(0.996264)" xlink:href="#CMR17-28"/>
     <use transform="translate(35.280768 0)scale(0.996264)" xlink:href="#CMR17-31"/>
     <use transform="translate(103.110452 0)scale(0.996264)" xlink:href="#CMSY10-0"/>
     <use transform="translate(202.737127 0)scale(0.996264)" xlink:href="#CMMI12-7d"/>
     <use transform="translate(264.841622 36.153639)scale(0.697382)" xlink:href="#CMR17-31"/>
     <use transform="translate(296.824804 36.153639)scale(0.697382)" xlink:href="#CMMI12-3d"/>
     <use transform="translate(330.967095 36.153639)scale(0.697382)" xlink:href="#CMMI12-1a"/>
     <use transform="translate(362.257288 0)scale(0.996264)" xlink:href="#SFRM3583-de"/>
     <use transform="translate(364.47117 2.767393)scale(0.996264)" xlink:href="#SFRM3583-de"/>
     <use transform="translate(366.685051 0)scale(0.996264)" xlink:href="#SFRM3583-de"/>
     <use transform="translate(422.394734 0)scale(0.996264)" xlink:href="#CMR17-29"/>
     <use transform="translate(485.34951 0)scale(0.996264)" xlink:href="#CMSY10-11"/>
     <use transform="translate(590.510987 0)scale(0.996264)" xlink:href="#CMMI12-14"/>
     <path d="M 590.510987 54.849612 
L 646.665611 54.849612 
L 646.665611 58.834561 
L 590.510987 58.834561 
L 590.510987 54.849612 
z
"/>
    </g>
   </g>
   <g id="text_18">
    <!-- $\underline{\kappa}\equiv(1-\pmb{\text{\TH}}_{R})$ -->
    <g transform="translate(149.85 473.5584)scale(0.26 -0.26)">
     <defs>
      <path d="M 2355 3924 
C 2413 4160 2438 4160 2688 4160 
L 3149 4160 
C 3699 4160 4109 3995 4109 3499 
C 4109 3175 3942 2240 2656 2240 
L 1933 2240 
L 2355 3924 
z
M 3245 2169 
C 4038 2341 4659 2851 4659 3398 
C 4659 3894 4154 4352 3264 4352 
L 1530 4352 
C 1402 4352 1344 4352 1344 4226 
C 1344 4160 1389 4160 1510 4160 
C 1894 4160 1894 4112 1894 4045 
C 1894 4033 1894 3994 1869 3899 
L 1005 479 
C 947 256 934 192 493 192 
C 346 192 301 192 301 71 
C 301 7 371 7 390 7 
C 506 7 640 7 762 7 
L 1517 7 
C 1632 7 1766 7 1882 7 
C 1933 7 2003 7 2003 128 
C 2003 192 1946 192 1850 192 
C 1459 192 1459 243 1459 306 
C 1459 313 1459 357 1472 407 
L 1901 2112 
L 2669 2112 
C 3277 2112 3392 1731 3392 1522 
C 3392 1427 3328 1179 3283 1014 
C 3213 723 3194 652 3194 532 
C 3194 82 3565 -128 3994 -128 
C 4512 -128 4736 501 4736 591 
C 4736 635 4704 654 4666 654 
C 4614 654 4602 616 4589 565 
C 4435 114 4173 0 4013 0 
C 3853 0 3750 70 3750 356 
C 3750 509 3827 1088 3834 1120 
C 3866 1355 3866 1380 3866 1432 
C 3866 1896 3488 2093 3245 2169 
z
" id="CMMI12-52" transform="scale(0.015625)"/>
     </defs>
     <use transform="scale(0.996264)" xlink:href="#CMMI12-14"/>
     <use transform="translate(83.828633 0)scale(0.996264)" xlink:href="#CMSY10-11"/>
     <use transform="translate(188.990109 0)scale(0.996264)" xlink:href="#CMR17-28"/>
     <use transform="translate(224.270877 0)scale(0.996264)" xlink:href="#CMR17-31"/>
     <use transform="translate(292.100561 0)scale(0.996264)" xlink:href="#CMSY10-0"/>
     <use transform="translate(387.299382 0)scale(0.996264)" xlink:href="#SFRM3583-de"/>
     <use transform="translate(389.513263 2.767393)scale(0.996264)" xlink:href="#SFRM3583-de"/>
     <use transform="translate(391.727144 0)scale(0.996264)" xlink:href="#SFRM3583-de"/>
     <use transform="translate(447.436827 -14.943915)scale(0.697382)" xlink:href="#CMMI12-52"/>
     <use transform="translate(500.48439 0)scale(0.996264)" xlink:href="#CMR17-29"/>
     <path d="M 0 -15.939799 
L 56.154624 -15.939799 
L 56.154624 -11.954849 
L 0 -11.954849 
L 0 -15.939799 
z
"/>
    </g>
   </g>
   <g id="text_19">
    <!-- $m$ -->
    <g transform="translate(781.785 504)scale(0.26 -0.26)">
     <use transform="scale(0.996264)" xlink:href="#CMMI12-6d"/>
    </g>
   </g>
  </g>
 </g>
 <defs>
  <clipPath id="p573c0295c3">
   <rect height="434.88" width="669.6" x="108" y="69.12"/>
  </clipPath>
 </defs>
</svg>
